<?xml version="1.0" encoding="UTF-8" standalone="no"?>
<!-- Created with Inkscape (http://www.inkscape.org/) -->

<svg
   xmlns:dc="http://purl.org/dc/elements/1.1/"
   xmlns:cc="http://creativecommons.org/ns#"
   xmlns:rdf="http://www.w3.org/1999/02/22-rdf-syntax-ns#"
   xmlns:svg="http://www.w3.org/2000/svg"
   xmlns="http://www.w3.org/2000/svg"
   xmlns:sodipodi="http://sodipodi.sourceforge.net/DTD/sodipodi-0.dtd"
   xmlns:inkscape="http://www.inkscape.org/namespaces/inkscape"
   width="152.13416mm"
   height="42.31002mm"
   viewBox="0 0 539.05803 149.9174"
   id="svg4231"
   version="1.1"
   inkscape:version="0.91 r13725"
   sodipodi:docname="acc-EXT.svg">
  <defs
     id="defs4233" />
  <sodipodi:namedview
     id="base"
     pagecolor="#ffffff"
     bordercolor="#666666"
     borderopacity="1.0"
     inkscape:pageopacity="0.0"
     inkscape:pageshadow="2"
     inkscape:zoom="1.4"
     inkscape:cx="187.76686"
     inkscape:cy="39.847094"
     inkscape:document-units="px"
     inkscape:current-layer="layer1"
     showgrid="false"
     fit-margin-top="0"
     fit-margin-left="0"
     fit-margin-right="0"
     fit-margin-bottom="0"
     inkscape:window-width="1600"
     inkscape:window-height="837"
     inkscape:window-x="1358"
     inkscape:window-y="-8"
     inkscape:window-maximized="1" />
  <metadata
     id="metadata4236">
    <rdf:RDF>
      <cc:Work
         rdf:about="">
        <dc:format>image/svg+xml</dc:format>
        <dc:type
           rdf:resource="http://purl.org/dc/dcmitype/StillImage" />
        <dc:title></dc:title>
      </cc:Work>
    </rdf:RDF>
  </metadata>
  <g
     inkscape:label="Capa 1"
     inkscape:groupmode="layer"
     id="layer1"
     transform="translate(-71.252993,-78.954269)">
    <path
       style="fill:#000000"
       d="m 166.53764,147.72427 c -0.13824,-0.13824 -0.25133,-3.48865 -0.25133,-7.44535 l 0,-7.19399 -17.24071,0 c -14.99046,0 -17.26796,-0.071 -17.4495,-0.54409 -0.27501,-0.71673 -5.57207,-0.80294 -5.57189,-0.0907 1.1e-4,0.35183 -1.88917,0.43697 -8.43328,0.38006 -7.57755,-0.0659 -8.4463,-0.13532 -8.5602,-0.68404 -0.11384,-0.54845 -0.56616,-0.58499 -4.43783,-0.35853 l -4.31106,0.25216 -1.423967,-1.14433 -1.42396,-1.14432 -9.30384,0.7658 c -5.11711,0.4212 -9.52739,0.64071 -9.8006,0.48781 -0.27322,-0.1529 -1.9772,-1.72669 -3.78662,-3.4973 l -3.28986,-3.2193 0,-3.33334 0,-3.33333 3.39701,-3.33133 c 3.07358,-3.01415 3.80455,-3.48346 5.30833,-3.40815 1.81067,0.0907 15.68501,1.22457 16.38247,1.33887 0.68523,0.11229 1.35992,-0.15403 2.31689,-0.91453 1.33786,-1.0632 1.392547,-1.07296 6.015647,-1.07296 3.53897,0 4.64362,-0.10948 4.57484,-0.4534 -0.11718,-0.58589 15.97307,-0.85727 16.55118,-0.27915 0.55772,0.55773 6.0283,0.48189 6.02823,-0.0836 -7e-5,-0.35633 3.66945,-0.4534 17.13864,-0.4534 l 17.13872,0 0,-7.36131 c 0,-7.059769 0.0297,-7.368639 0.72544,-7.540449 0.399,-0.0985 2.84737,-0.13206 5.44084,-0.0745 l 4.71539,0.10464 0.10726,2.44838 0.10726,2.44837 2.34112,0 c 1.77277,0 2.34112,-0.12415 2.34112,-0.51144 0,-0.56606 2.21409,-4.56831 2.5248,-4.56388 0.10758,0.001 0.58812,0.68984 1.06785,1.52956 l 0.87221,1.52675 0.74082,-1.52955 c 0.40745,-0.84125 0.8553,-1.52955 0.99524,-1.52955 0.13994,0 0.65464,0.67772 1.14385,1.50606 l 0.88939,1.50606 0.84649,-1.50606 c 0.46551,-0.82834 0.9388,-1.5048 1.05167,-1.50327 0.11288,0.001 0.59291,0.68141 1.0667,1.51083 l 0.86147,1.50802 0.81815,-1.35561 c 0.44996,-0.74559 0.94613,-1.36007 1.10257,-1.36552 0.15644,-0.005 0.65014,0.59605 1.09709,1.33665 l 0.81268,1.34653 0.85051,-1.48905 c 0.46781,-0.81898 0.96963,-1.49031 1.11523,-1.49185 0.14556,-0.001 0.61431,0.68258 1.04167,1.52026 l 0.77698,1.52304 0.89945,-1.52304 c 0.49471,-0.83768 1.00532,-1.5207 1.13467,-1.51782 0.12938,0.003 0.68409,0.81908 1.23271,1.8138 0.77554,1.40619 0.99749,2.2915 0.99749,3.97916 l 0,2.170579 10.42827,0.0962 10.42827,0.0962 0,4.16774 0,4.16775 -1.08817,0.18849 c -0.63795,0.1105 -1.08816,0.41213 -1.08816,0.729 0,0.46284 1.56388,0.56659 10.88167,0.72189 9.70639,0.16177 11.01879,0.25439 12.15121,0.85753 3.32747,1.77227 4.87401,4.31801 4.87775,8.02917 0.004,3.91915 -1.70832,6.63028 -5.24047,8.29758 -1.52703,0.72082 -2.31758,0.77819 -12.26293,0.89008 -9.67802,0.10888 -10.62026,0.17364 -10.51453,0.72265 0.0665,0.34518 0.57956,0.6825 1.19989,0.78884 0.95012,0.16288 1.0976,0.35327 1.19629,1.54436 l 0.11259,1.35859 25.36867,0 25.36871,0 0,-11.96985 c 0,-6.58341 0.0941,-11.96984 0.20911,-11.96984 0.11502,0 1.56562,0.58274 3.22355,1.29498 l 3.01444,1.29498 3.1241,-1.29323 3.12409,-1.29322 3.13327,1.29702 3.13327,1.29702 2.76097,-1.1613 c 1.51854,-0.63872 2.96501,-1.24063 3.21438,-1.33759 0.35837,-0.13934 0.4534,3.06495 0.4534,15.29087 l 0,15.46714 -47.97006,-0.12767 c -26.38353,-0.0702 -48.29651,-0.19832 -48.6955,-0.28467 -0.64688,-0.14 -0.72864,0.0394 -0.75475,1.65661 -0.0272,1.67535 -0.10146,1.82221 -0.97591,1.92631 -0.67887,0.0808 -1.21356,0.56816 -1.89029,1.72293 -0.51902,0.88563 -1.06289,1.61024 -1.20863,1.61024 -0.14571,0 -0.57259,-0.57129 -0.94863,-1.26953 -0.37603,-0.69824 -0.79548,-1.26953 -0.93216,-1.26953 -0.13667,0 -0.55616,0.57129 -0.93216,1.26953 -0.37603,0.69824 -0.7965,1.26953 -0.93437,1.26953 -0.13784,0 -0.60372,-0.57129 -1.03525,-1.26953 -0.43153,-0.69824 -0.83959,-1.26953 -0.90681,-1.26953 -0.0672,0 -0.47527,0.57129 -0.9068,1.26953 -0.43153,0.69824 -0.89741,1.26953 -1.03528,1.26953 -0.13784,0 -0.55831,-0.57129 -0.93434,-1.26953 -0.37604,-0.69824 -0.79549,-1.26953 -0.93216,-1.26953 -0.13668,0 -0.55616,0.57129 -0.93216,1.26953 -0.37604,0.69824 -0.79651,1.26953 -0.93438,1.26953 -0.13783,0 -0.60433,-0.5723 -1.03666,-1.27179 -0.86785,-1.40421 -1.18962,-1.37106 -2.00545,0.20662 -0.71025,1.37348 -0.99448,1.3417 -1.82707,-0.20436 -0.37604,-0.69824 -0.7841,-1.26953 -0.90681,-1.26953 -0.12275,0 -0.53135,0.57233 -0.90808,1.27185 -0.37672,0.69951 -0.85127,1.21698 -1.05461,1.14994 -0.20331,-0.0671 -0.41793,-1.21067 -0.47691,-2.54138 l -0.10726,-2.41947 -2.32454,0 -2.32454,0 -0.10726,2.44838 -0.10726,2.44838 -5.09883,0.10021 c -2.80431,0.0551 -5.21188,-0.0129 -5.35015,-0.15113 z m 9.54218,-26.60919 0,-26.116019 -4.53404,0 -4.53403,0 0,25.874199 c 0,14.23082 0.10882,25.98303 0.24183,26.11603 0.13297,0.133 2.17329,0.24181 4.53403,0.24181 l 4.29221,0 0,-26.11602 z m 10.72585,0.48018 c 1.01025,-27.885959 0.97964,-25.638809 0.33015,-24.238509 -0.70771,1.52576 -2.50362,46.239999 -1.90959,47.543779 0.22122,0.48551 0.47248,0.8125 0.55834,0.72663 0.0859,-0.0859 0.54535,-10.90022 1.0211,-24.0319 z m 3.92125,-2.29379 c 0.45267,-12.46859 0.78322,-22.724949 0.73454,-22.791909 -0.0487,-0.067 -0.27432,0.22544 -0.50142,0.64977 -0.26381,0.49289 -0.75944,9.071659 -1.37255,23.755629 -0.84615,20.26668 -0.89733,23.10605 -0.43305,24.01537 l 0.52656,1.03125 0.11143,-1.99498 c 0.0613,-1.09723 0.48181,-12.19654 0.93449,-24.66513 z m 7.63505,0.54408 c 0.47636,-12.76783 0.81257,-23.269029 0.7471,-23.335989 -0.69305,-0.70917 -1.0367,3.758749 -1.88061,24.450149 -0.80513,19.74129 -0.86814,23.17633 -0.44056,24.0188 l 0.49893,0.98307 0.1045,-1.45089 c 0.0575,-0.79799 0.49428,-11.8973 0.97064,-24.66514 z m 1.86566,1.16176 c 0.85922,-20.92746 0.89415,-23.120549 0.38315,-24.063709 l -0.56222,-1.03774 -0.0171,1.08817 c -0.009,0.59849 -0.42283,11.779419 -0.91896,24.846499 -0.49613,13.06708 -0.89661,23.83994 -0.88994,23.93968 0.007,0.0998 0.24781,-0.2525 0.53585,-0.78278 0.40901,-0.75303 0.73067,-6.00622 1.46903,-23.99012 z m -16.16792,22.1588 c 0,-0.56351 0.41104,-10.98389 0.91341,-23.15641 0.6743,-16.33841 0.80905,-22.326869 0.5147,-22.876869 -0.2193,-0.40976 -0.47429,-0.66943 -0.56668,-0.57706 -0.1387,0.13871 -1.94804,45.226739 -1.93164,48.136279 0.005,0.87538 0.0236,0.8824 0.53766,0.20271 0.2929,-0.38725 0.53255,-1.16514 0.53255,-1.72865 z m 7.61496,0.0964 c 0,-0.51049 0.42174,-10.85597 0.93989,-22.98995 0.75852,-17.76379 0.85544,-22.270909 0.49747,-23.135199 -0.24454,-0.59037 -0.50425,-1.01379 -0.57709,-0.94093 -0.0729,0.0729 -0.45228,9.177889 -0.84318,20.233409 -0.39087,11.05552 -0.80274,22.14126 -0.91526,24.63498 -0.18521,4.10519 -0.15231,4.46744 0.34792,3.82994 0.30386,-0.38725 0.55145,-1.12176 0.55025,-1.63225 z m 2.91375,-23.17246 c 0.42983,-12.83286 0.69639,-23.417579 0.59237,-23.521599 -0.61656,-0.61658 -1.02763,4.994039 -1.83592,25.059289 -0.68628,17.03675 -0.80481,22.64006 -0.49099,23.21424 0.39642,0.72532 0.4249,0.71151 0.68334,-0.33129 0.14835,-0.5985 0.62138,-11.58778 1.0512,-24.42064 z m 1.78699,1.1145 c 0.8483,-21.07112 0.8577,-24.754599 0.0631,-24.754599 -0.2019,0 -1.95218,45.547089 -1.86084,48.423459 0.0228,0.72544 0.0228,0.72544 0.44854,0 0.28423,-0.48459 0.73219,-8.3429 1.34918,-23.66886 z m 5.84314,-0.68075 c 0.4357,-12.5943 0.70988,-23.122319 0.60933,-23.395609 -0.58601,-1.59243 -0.97427,3.615779 -1.78829,23.986889 -0.61598,15.4153 -0.79143,22.96036 -0.54822,23.57697 l 0.35761,0.9068 0.28873,-1.08816 c 0.15876,-0.5985 0.64513,-11.3926 1.08084,-23.98689 z m 1.80106,-0.0168 c 0.52457,-15.38821 0.66277,-23.127099 0.42076,-23.559559 -0.28456,-0.50849 -0.40324,-0.22785 -0.564,1.33356 -0.21549,2.093339 -1.71328,43.393869 -1.66341,45.866989 l 0.0294,1.45089 0.49813,-1.08816 c 0.37592,-0.82118 0.68979,-6.71076 1.27928,-24.00372 z m -15.29532,0.79041 c 0.86618,-20.65009 0.91192,-23.230409 0.4299,-24.250249 l -0.53944,-1.14127 -0.0991,1.63225 c -0.20755,3.417289 -1.55484,42.384019 -1.55448,44.959469 2.5e-4,1.95602 0.1099,2.59271 0.39711,2.30553 0.25735,-0.25735 0.73734,-8.51656 1.36605,-23.50573 z m 16.01061,14.44751 c 0,-4.52194 -0.0591,-8.1537 -0.13134,-8.07058 -0.34891,0.40152 -0.58275,16.29229 -0.23976,16.29229 0.24204,0 0.3711,-2.85887 0.3711,-8.22171 z m -22.85152,-14.81117 0,-21.219269 -2.3577,0 -2.3577,0 0,21.219269 0,21.21927 2.3577,0 2.3577,0 0,-21.21927 z m 120.42388,5.07325 0,-14.33241 -1.17884,0.49672 c -0.64837,0.2732 -3.35428,1.42757 -6.01311,2.56528 l -4.83429,2.06855 -4.6031,-1.99969 c -2.53169,-1.09983 -5.17735,-2.23964 -5.87929,-2.53292 l -1.27621,-0.53323 0.0131,11.67031 0.0134,11.67032 -36.45362,0.18136 -36.45361,0.18136 0,2.17278 c 0,2.12066 0.0261,2.17835 1.08817,2.40546 0.59849,0.12797 22.34824,0.252 48.33278,0.2756 l 47.24461,0.0429 0,-14.33241 z m -76.53445,7.44068 c 0,-1.03352 -0.0774,-1.08973 -1.54158,-1.11917 -0.84786,-0.017 -4.47962,-0.22108 -8.07057,-0.4534 l -6.52901,-0.42241 -0.0963,-10.42827 -0.0962,-10.42827 0.82167,0.001 c 1.37943,0.002 12.32829,-0.73553 13.9704,-0.94092 l 1.54158,-0.19282 0,-3.24227 0,-3.24228 -10.15624,0 -10.15623,0 0,15.53661 c 0,8.54514 0.10882,15.64544 0.24183,15.77843 0.13297,0.133 4.70328,0.24182 10.15623,0.24182 l 9.91441,0 0,-1.08817 z m -100.83687,-12.51393 0,-11.06304 -7.43582,0 -7.43581,0 0,11.06304 0,11.06304 7.43581,0 7.43582,0 0,-11.06304 z m 41.35037,0 0,-11.06304 -16.8666,0 -16.8666,0 0,11.06304 0,11.06304 16.8666,0 16.8666,0 0,-11.06304 z m -63.11373,0 0,-9.97487 -1.26953,0 -1.26953,0 0,9.97487 0,9.97487 1.26953,0 1.26953,0 0,-9.97487 z m 110.72795,9.73695 c -0.24556,-0.0994 -0.73523,-0.10541 -1.08816,-0.0134 -0.35293,0.092 -0.15198,0.17326 0.44651,0.18066 0.59849,0.007 0.88722,-0.0679 0.64165,-0.16722 z m 8.9705,-0.1248 c 0,-0.2181 -1.26543,-0.3422 -3.17383,-0.31125 -2.49549,0.0405 -2.86373,0.10699 -1.72293,0.31125 2.24609,0.40216 4.89676,0.40216 4.89676,0 z M 99.735173,111.7532 c -0.10195,-0.10195 -0.51282,0.11097 -0.91304,0.47317 -0.68722,0.62192 -0.72767,1.11089 -0.72767,8.7961 0,8.00128 0.0137,8.14866 0.81613,8.79871 l 0.81612,0.66112 0.0969,-9.27186 c 0.0533,-5.09953 0.0135,-9.35528 -0.0885,-9.45724 z m -20.50228,9.15029 c 0,-5.81111 -0.13099,-9.23446 -0.35043,-9.15874 -0.19274,0.0665 -1.74338,1.39685 -3.44587,2.95634 l -3.09543,2.83544 0,3.32327 0,3.32327 2.98445,3.00004 c 1.64145,1.65002 3.19209,3.00003 3.44587,3.00003 0.36137,0 0.46141,-2.01184 0.46141,-9.27965 z m 11.06304,8.61795 6.89173,-0.60782 0.0978,-7.88922 c 0.0538,-4.33907 -0.0279,-7.89329 -0.18136,-7.89826 -0.15351,-0.005 -3.95139,-0.31602 -8.43972,-0.69121 -4.48833,-0.3752 -8.28331,-0.60633 -8.4333,-0.51364 -0.14998,0.0927 -0.2727,4.23954 -0.2727,9.2152 l 0,9.04665 1.72294,-0.0269 c 0.94761,-0.0148 4.82421,-0.30046 8.61466,-0.63476 z m 123.688387,-0.0721 c 1.19699,-0.18689 8.33986,-0.34307 15.87307,-0.34708 13.15928,-0.007 13.76046,-0.0373 15.32075,-0.77068 1.55252,-0.72977 3.80891,-2.86353 3.80891,-3.60191 0,-0.19255 0.16322,-0.3501 0.36272,-0.3501 0.74906,0 0.31746,1.1374 -0.99749,2.6287 -1.2939,1.46739 -0.91377,1.36499 0.9421,-0.25379 3.39436,-2.96075 3.04586,-9.32688 -0.66367,-12.12309 l -1.26311,-0.95213 1.17243,1.44285 c 1.08004,1.32912 1.55017,2.74684 0.90042,2.71521 -0.14962,-0.007 -0.72573,-0.72957 -1.28026,-1.60508 -0.67405,-1.06424 -1.57571,-1.87135 -2.72042,-2.43513 -1.69145,-0.83308 -1.90114,-0.84554 -17.30927,-1.02819 -11.26591,-0.13355 -15.88061,-0.30982 -16.61817,-0.63476 -0.5616,-0.24743 -1.09208,-0.44988 -1.17885,-0.44988 -0.0868,0 -0.15774,4.18128 -0.15774,9.29173 l 0,9.29173 0.81612,-0.23931 c 0.44887,-0.13162 1.79548,-0.39222 2.99246,-0.57909 z m 26.06416,-5.04739 c -2.31359,-0.99115 -2.62572,-4.83527 -0.52367,-6.44917 0.31884,-0.24477 1.68006,-0.44701 3.05181,-0.4534 2.26077,-0.0105 2.56854,0.0807 3.53654,1.04873 1.38292,1.38291 1.4691,3.50211 0.20233,4.97481 -0.74369,0.86459 -1.16634,1.0117 -3.17382,1.10472 -1.27374,0.059 -2.66569,-0.0425 -3.09319,-0.22569 z m 0.26261,-1.78108 c -0.56882,-1.06286 -0.48097,-2.66842 0.19917,-3.63945 0.57281,-0.81778 0.56737,-0.83138 -0.17306,-0.43512 -1.61705,0.86542 -2.00683,3.1565 -0.75072,4.41261 0.88881,0.88882 1.28284,0.70501 0.72461,-0.33804 z m 3.59987,0.0415 c 1.2498,-1.58887 0.45805,-4.08636 -1.29542,-4.08636 -0.95552,0 -1.97111,1.23114 -1.97111,2.38949 0,0.93099 1.30417,2.68863 1.99497,2.68863 0.27027,0 0.84246,-0.4463 1.27156,-0.99176 z m 1.79744,0.19792 c 1.21291,-1.30191 0.8401,-3.454 -0.74536,-4.30251 -0.72396,-0.38745 -0.72737,-0.37386 -0.13308,0.53314 0.60176,0.91837 0.60266,2.54472 0.004,3.92844 -0.37452,0.86313 -0.0152,0.79792 0.87622,-0.15907 z M 183.78136,99.773661 c 0.11201,-2.8462 0.058,-3.28374 -0.33828,-2.74177 -0.36279,0.49616 -0.45884,2.90822 -0.41644,10.459729 l 0.0551,9.81486 0.28318,-7.07309 c 0.15571,-3.8902 0.34313,-8.59708 0.41644,-10.459729 z m 109.63129,14.849159 2.16847,-0.99584 -2.62187,-1.02866 -2.62183,-1.02865 -2.62187,1.02865 -2.62186,1.02866 2.16846,0.99584 c 1.19267,0.54772 2.57653,0.99585 3.07527,0.99585 0.49874,0 1.8826,-0.44813 3.07523,-0.99585 z m -70.99285,-3.1199 c -0.10505,-0.41023 -3.76212,-0.27562 -5.27957,0.19433 -0.66408,0.20566 0.0434,0.28163 2.19643,0.23588 1.90512,-0.0405 3.13885,-0.21263 3.08314,-0.43021 z"
       id="path4214"
       inkscape:connector-curvature="0" />
    <text
       xml:space="preserve"
       style="font-style:normal;font-weight:normal;font-size:13.75px;line-height:125%;font-family:sans-serif;letter-spacing:0px;word-spacing:0px;fill:#000000;fill-opacity:1;stroke:none;stroke-width:1px;stroke-linecap:butt;stroke-linejoin:miter;stroke-opacity:1"
       x="101.96727"
       y="88.978073"
       id="text5382"
       sodipodi:linespacing="125%"><tspan
         sodipodi:role="line"
         x="101.96727"
         y="88.978073"
         id="tspan4177">PTT-</tspan><tspan
         sodipodi:role="line"
         x="101.96727"
         y="106.16557"
         id="tspan4181">OUT</tspan></text>
    <text
       xml:space="preserve"
       style="font-style:normal;font-weight:normal;font-size:13.75px;line-height:125%;font-family:sans-serif;letter-spacing:0px;word-spacing:0px;fill:#000000;fill-opacity:1;stroke:none;stroke-width:1px;stroke-linecap:butt;stroke-linejoin:miter;stroke-opacity:1"
       x="133.39586"
       y="99.69236"
       id="text5386"
       sodipodi:linespacing="125%"><tspan
         sodipodi:role="line"
         id="tspan5388"
         x="133.39586"
         y="99.69236">GND</tspan></text>
    <path
       style="fill:#000000"
       d="m 504.54658,161.08677 c -0.13971,-0.53425 -0.32111,-0.53777 -27.32649,-0.53034 -14.95223,0.004 -27.2892,-0.0959 -27.41549,-0.22215 -0.12629,-0.12629 -1.0982,-1.66434 -2.15981,-3.41789 l -1.93019,-3.18827 -20.81187,-0.0686 -20.81187,-0.0686 0,-1.47058 0,-1.47058 -8.16415,0 -8.16414,0 0,-25.96466 0,-25.964655 8.16414,0 8.16415,0 0,-1.47222 0,-1.47222 20.81187,-0.0102 20.81187,-0.0102 2.03817,-3.40268 2.03818,-3.40267 27.30847,-0.0682 c 27.09254,-0.0676 27.30957,-0.0724 27.44906,-0.60577 0.13782,-0.52708 0.32287,-0.53621 9.46649,-0.46717 l 9.32592,0.0704 0.0734,4.48184 0.0734,4.48184 19.46701,0.0687 19.46704,0.0687 0.0706,8.758325 0.0706,8.75832 20.13904,0.075 20.13904,0.075 1.53103,0.71779 c 2.15239,1.00912 4.0419,2.8705 5.07904,5.00351 0.7874,1.61933 0.86221,1.9949 0.85986,4.31658 -0.003,2.16595 -0.10525,2.76614 -0.69535,4.04862 -1.29895,2.82305 -3.80451,4.93673 -6.76655,5.70824 -1.36742,0.35617 -4.32945,0.41486 -20.93939,0.41486 l -19.34669,0 -0.0706,8.76641 -0.0706,8.76642 -19.47349,0.0687 -19.47349,0.0687 0,4.54876 0,4.54876 -9.39375,0 c -9.18297,0 -9.3969,-0.0121 -9.5344,-0.53782 z m 18.12512,-18.19956 0,-17.93435 -8.6995,0 -8.6995,0 0,17.93435 0,17.93435 8.6995,0 8.6995,0 0,-17.93435 z m -18.20203,13.11616 0,-3.74747 -1.87374,0 c -1.0707,0 -1.87373,-0.11472 -1.87373,-0.26768 0,-0.15296 0.80303,-0.26768 1.87373,-0.26768 l 1.87374,0 0,-27.03536 0,-27.035365 -1.87374,0 c -1.0707,0 -1.87373,-0.11471 -1.87373,-0.26767 0,-0.15296 0.80303,-0.26768 1.87373,-0.26768 l 1.87374,0 0,-3.74748 0,-3.74747 -26.90152,0 -26.90153,0 0,3.74747 0,3.74748 9.23485,0 c 5.97812,0 9.23486,0.0944 9.23486,0.26768 0,0.17328 -3.25674,0.26767 -9.23486,0.26767 l -9.23485,0 0,9.101025 0,9.10101 2.4314,0 c 1.82578,0 2.4038,0.0833 2.32057,0.3346 -0.0745,0.22503 -0.87067,0.35992 -2.43139,0.41193 l -2.32058,0.0773 0,3.87089 0,3.8709 2.25295,0 c 1.55848,0 2.29076,-0.10314 2.37563,-0.3346 0.0981,-0.26768 0.19362,-0.26768 0.47736,0 0.26766,0.25251 2.3444,0.3346 8.46528,0.3346 l 8.11061,0 0,-1.99178 c 0,-1.09548 0.12045,-2.06622 0.26767,-2.15721 0.17,-0.10506 0.26768,0.6218 0.26768,1.99177 l 0,2.15722 10.30556,0 c 6.69192,0 10.30556,0.0939 10.30556,0.26767 0,0.17591 -6.42066,0.26768 -18.72664,0.26768 l -18.72663,0 -0.3195,1.0664 c -0.30346,1.01286 -1.16443,2.1109 -1.43948,1.83584 -0.0705,-0.0705 0.11094,-0.59711 0.40315,-1.17028 0.85597,-1.67893 0.80258,-1.73196 -1.74394,-1.73196 l -2.27526,0 0,1.7399 c 0,1.85285 -0.0186,1.83179 1.53915,1.74651 0.47847,-0.0262 0.86995,0.068 0.86995,0.20934 0,0.2885 -0.89624,0.5779 -1.80682,0.58343 -0.5613,0.003 -0.60228,0.1199 -0.60228,1.71233 0,1.99384 0.0523,2.02915 3.01137,2.03514 1.02366,0.002 1.80682,0.11968 1.80682,0.27133 0,0.15863 -0.98149,0.26768 -2.40909,0.26768 -1.42761,0 -2.4091,0.10905 -2.4091,0.26768 0,0.15134 0.76586,0.26767 1.76221,0.26767 1.29023,0 1.73262,0.0896 1.65173,0.3346 -0.0684,0.20718 -0.73947,0.36494 -1.7622,0.41429 l -1.65174,0.0797 0,8.41905 0,8.41904 9.23485,0 c 5.97812,0 9.23486,0.0944 9.23486,0.26768 0,0.17328 -3.25674,0.26768 -9.23486,0.26768 l -9.23485,0 0,3.74747 0,3.74748 26.90153,0 26.90152,0 0,-3.74748 z m -32.10635,-8.16414 c 0,-2.68187 0.10222,-4.41667 0.26024,-4.41667 0.15734,0 0.26024,1.64048 0.26024,4.14899 l 0,4.14899 2.00758,0 c 1.15993,0 2.00758,0.11302 2.00758,0.26768 0,0.15739 -0.93441,0.26768 -2.26782,0.26768 l -2.26782,0 0,-4.41667 z m 5.87402,4.14899 c 0,-0.15614 0.89225,-0.26768 2.14142,-0.26768 1.24916,0 2.14141,0.11154 2.14141,0.26768 0,0.15614 -0.89225,0.26768 -2.14141,0.26768 -1.24917,0 -2.14142,-0.11154 -2.14142,-0.26768 z m 5.75505,0 c 0.091,-0.14722 1.12197,-0.26768 2.29105,-0.26768 1.23862,0 2.12562,0.1117 2.12562,0.26768 0,0.1576 -0.94214,0.26768 -2.29104,0.26768 -1.45922,0 -2.23101,-0.0972 -2.12563,-0.26768 z m 5.75506,0 c 0,-0.15598 0.88697,-0.26768 2.12562,-0.26768 1.16908,0 2.20006,0.12046 2.29104,0.26768 0.10536,0.17049 -0.6664,0.26768 -2.12562,0.26768 -1.3489,0 -2.29104,-0.11008 -2.29104,-0.26768 z m 5.88889,0 c 0,-0.15614 0.89224,-0.26768 2.14141,-0.26768 1.24917,0 2.14142,0.11154 2.14142,0.26768 0,0.15614 -0.89225,0.26768 -2.14142,0.26768 -1.24917,0 -2.14141,-0.11154 -2.14141,-0.26768 z M 472.5269,141.90573 c -0.29081,-0.29081 -0.20752,-4.37206 0.0892,-4.37206 0.15746,0 0.26768,0.93687 0.26768,2.27526 0,2.27972 -0.0253,2.42839 -0.3569,2.0968 z m -0.17845,-6.36959 c 0,-0.64689 -0.0456,-0.66058 -2.45436,-0.73611 -1.66818,-0.0523 -2.48987,-0.18414 -2.56524,-0.41156 -0.0835,-0.25211 0.52149,-0.3346 2.45436,-0.3346 1.53171,0 2.56524,-0.10784 2.56524,-0.26767 0,-0.15296 -0.80303,-0.26768 -1.87374,-0.26768 -1.07071,0 -1.87374,-0.11472 -1.87374,-0.26768 0,-0.15296 0.80303,-0.26767 1.87374,-0.26767 1.69529,0 1.87374,-0.051 1.87374,-0.53536 0,-0.29444 0.12045,-0.53535 0.26767,-0.53535 0.32466,0 0.38217,0.7005 0.29121,3.54672 -0.0292,0.91289 -0.55888,0.98584 -0.55888,0.077 z M 455.68081,134.696 c -0.44276,-0.44275 0.25623,-0.64213 2.25119,-0.64213 1.59894,0 2.11963,0.0855 2.03722,0.3346 -0.11928,0.3605 -3.96002,0.63592 -4.28841,0.30753 z m 5.88161,-0.007 c -0.50624,-0.50624 -0.005,-0.65002 2.01961,-0.57876 1.24194,0.0437 2.20834,0.19488 2.20834,0.34542 0,0.30504 -3.93887,0.52242 -4.22795,0.23334 z m -4.60539,-1.43788 c -0.10537,-0.17049 0.66641,-0.26767 2.12562,-0.26767 1.34891,0 2.29105,0.11007 2.29105,0.26767 0,0.15598 -0.88699,0.26768 -2.12562,0.26768 -1.16909,0 -2.20006,-0.12045 -2.29105,-0.26768 z m 5.75505,0 c 0,-0.1576 0.94214,-0.26767 2.29105,-0.26767 1.45921,0 2.23099,0.0972 2.12562,0.26767 -0.091,0.14723 -1.12196,0.26768 -2.29105,0.26768 -1.23863,0 -2.12562,-0.1117 -2.12562,-0.26768 z m 9.81482,-2.85522 c -0.29081,-0.2908 -0.20752,-4.37205 0.0892,-4.37205 0.15746,0 0.26768,0.93687 0.26768,2.27525 0,2.27973 -0.0253,2.4284 -0.3569,2.0968 z m 24.44782,-5.71044 c 0,-0.15614 0.89225,-0.26767 2.14142,-0.26767 1.24916,0 2.14141,0.11153 2.14141,0.26767 0,0.15615 -0.89225,0.26768 -2.14141,0.26768 -1.24917,0 -2.14142,-0.11153 -2.14142,-0.26768 z m -42.67232,-2.6523 c -0.4217,-0.46597 -0.97254,-0.74326 -2.40907,-1.21269 -0.37647,-0.12303 -0.43393,-0.24698 -0.21565,-0.46525 0.21827,-0.21828 0.53328,-0.20457 1.18239,0.0515 1.33917,0.52821 2.94344,2.13737 2.13087,2.13737 -0.1244,0 -0.43425,-0.2299 -0.68854,-0.51089 z m 18.04605,-4.29506 0,-1.05848 -1.78549,-0.0791 c -1.13044,-0.0501 -1.82604,-0.2019 -1.89604,-0.41374 -0.0815,-0.2466 0.38813,-0.3346 1.78548,-0.3346 1.08558,0 1.89605,-0.11442 1.89605,-0.26768 0,-0.15296 -0.80303,-0.26768 -1.87374,-0.26768 -1.07071,0 -1.87374,-0.11471 -1.87374,-0.26767 0,-0.14914 0.8298,-0.28546 1.87374,-0.30783 1.03056,-0.0221 2.02431,-0.0522 2.20833,-0.0669 0.21646,-0.0173 0.31928,0.30402 0.29121,0.9101 -0.0239,0.51528 -0.054,1.4488 -0.0669,2.0745 -0.0297,1.43584 -0.55888,1.51078 -0.55888,0.0791 z m -15.32926,-1.24384 c -0.44275,-0.44275 0.25623,-0.64213 2.2512,-0.64213 1.59893,0 2.11962,0.0855 2.03721,0.3346 -0.11927,0.36049 -3.96002,0.63592 -4.28841,0.30753 z m 5.83227,-0.0978 c -0.0953,-0.15424 -0.003,-0.34572 0.20481,-0.42552 0.63196,-0.24251 4.07248,-0.004 4.07248,0.28271 0,0.36687 -4.05514,0.50225 -4.27729,0.14281 z m -11.64948,-1.34735 c 0,-0.15615 0.89225,-0.26768 2.14141,-0.26768 1.24916,0 2.14142,0.11153 2.14142,0.26768 0,0.15614 -0.89226,0.26767 -2.14142,0.26767 -1.24916,0 -2.14141,-0.11153 -2.14141,-0.26767 z m 5.88889,0 c 0,-0.15615 0.89225,-0.26768 2.14141,-0.26768 1.24916,0 2.14142,0.11153 2.14142,0.26768 0,0.15614 -0.89226,0.26767 -2.14142,0.26767 -1.24916,0 -2.14141,-0.11153 -2.14141,-0.26767 z m 5.62121,0 c 0,-0.1576 0.94214,-0.26768 2.29105,-0.26768 1.45921,0 2.23099,0.0972 2.12562,0.26768 -0.091,0.14722 -1.12196,0.26767 -2.29105,0.26767 -1.23863,0 -2.12562,-0.11169 -2.12562,-0.26767 z m 9.81482,-2.05219 c -0.29081,-0.29081 -0.20752,-4.37206 0.0892,-4.37206 0.15746,0 0.26768,0.93687 0.26768,2.27526 0,2.27972 -0.0253,2.4284 -0.3569,2.0968 z m -0.17845,-7.85185 c 0,-1.24916 0.11153,-2.14142 0.26767,-2.14142 0.15615,0 0.26768,0.89226 0.26768,2.14142 0,1.24915 -0.11153,2.14141 -0.26768,2.14141 -0.15614,0 -0.26767,-0.89226 -0.26767,-2.14141 z m 0,-5.888895 0,-2.14142 2.27525,0 c 1.33839,0 2.27526,0.11022 2.27526,0.26768 0,0.15466 -0.84765,0.26767 -2.00758,0.26767 l -2.00758,0 0,1.87374 c 0,1.070715 -0.11472,1.873745 -0.26768,1.873745 -0.15614,0 -0.26767,-0.89226 -0.26767,-2.141415 z m 5.35354,-1.87374 c 0,-0.15615 0.89225,-0.26768 2.14141,-0.26768 1.24917,0 2.14142,0.11153 2.14142,0.26768 0,0.15614 -0.89225,0.26767 -2.14142,0.26767 -1.24916,0 -2.14141,-0.11153 -2.14141,-0.26767 z m 5.62121,0 c 0,-0.15746 0.93687,-0.26768 2.27526,-0.26768 1.33838,0 2.27525,0.11022 2.27525,0.26768 0,0.15745 -0.93687,0.26767 -2.27525,0.26767 -1.33839,0 -2.27526,-0.11022 -2.27526,-0.26767 z m 5.88889,0 c 0,-0.15615 0.89225,-0.26768 2.14142,-0.26768 1.24916,0 2.14141,0.11153 2.14141,0.26768 0,0.15614 -0.89225,0.26767 -2.14141,0.26767 -1.24917,0 -2.14142,-0.11153 -2.14142,-0.26767 z m 5.88889,0 c 0,-0.15615 0.89225,-0.26768 2.14142,-0.26768 1.24916,0 2.14141,0.11153 2.14141,0.26768 0,0.15614 -0.89225,0.26767 -2.14141,0.26767 -1.24917,0 -2.14142,-0.11153 -2.14142,-0.26767 z m -45.35326,55.225555 c -0.0909,-0.23681 -0.66272,-0.3518 -1.74946,-0.3518 -1.35453,0 -1.61446,0.0749 -1.61446,0.46495 0,0.25572 0.75284,1.71395 1.67298,3.2405 l 1.67298,2.77555 0.0765,-2.8887 c 0.0421,-1.58879 0.0157,-3.04702 -0.0585,-3.2405 z m -4.16696,-0.0841 c 0,-0.1761 -6.95959,-0.26767 -20.34343,-0.26767 -13.38385,0 -20.34344,0.0916 -20.34344,0.26767 0,0.17611 6.95959,0.26768 20.34344,0.26768 13.38384,0 20.34343,-0.0916 20.34343,-0.26768 z m 0,-9.21707 0,-8.41404 -0.67751,-0.0847 c -0.37263,-0.0466 -0.67751,-0.20515 -0.67751,-0.35237 0,-0.14722 0.30488,-0.30579 0.67751,-0.35238 0.62583,-0.0782 0.67751,-0.18943 0.67751,-1.45757 0,-1.07365 -0.1383,-1.52193 -0.63454,-2.05672 -0.97252,-1.04808 -1.56491,-2.0886 -1.28689,-2.26042 0.13699,-0.0847 0.58151,0.32577 0.98782,0.91208 0.40631,0.58631 0.78259,1.06602 0.83618,1.06602 0.0536,0 0.0974,-2.54611 0.0974,-5.65802 l 0,-5.65802 -0.78574,0.98872 c -0.43215,0.5438 -0.83725,1.13253 -0.90022,1.30828 -0.063,0.17575 -0.21077,0.22971 -0.32845,0.11992 -0.29337,-0.27371 0.20585,-1.29102 1.17546,-2.39534 l 0.80861,-0.92095 0.0204,-10.22058 0.0204,-10.220595 -20.34872,0 -20.34871,0 0,13.383855 0,13.38384 3.34596,0 3.34596,0 0,-1.07071 c 0,-0.58889 0.12045,-1.07071 0.26768,-1.07071 0.14722,0 0.26767,0.48182 0.26767,1.07071 l 0,1.07071 11.77778,0 c 7.67341,0 11.77778,0.0933 11.77778,0.26767 0,0.1744 -4.10437,0.26768 -11.77778,0.26768 l -11.77778,0 0,0.95267 c 0,0.56695 -0.10837,0.88568 -0.26767,0.78723 -0.14723,-0.091 -0.26768,-0.51969 -0.26768,-0.95267 l 0,-0.78723 -3.34596,0 -3.34596,0 0,13.38384 0,13.38384 20.34344,0 20.34344,0 0,-8.41404 z M 419.0051,138.6602 c -2.60026,-0.0978 -2.50894,-0.59085 0.10942,-0.59085 l 1.8759,0 -0.0636,-1.94066 -0.0636,-1.94066 2.21314,-0.0782 c 1.71533,-0.0606 2.18742,-2.6e-4 2.09883,0.26768 -0.0745,0.22532 -0.73655,0.37343 -1.8998,0.42499 l -1.78548,0.0791 0,1.84571 c 0,1.01514 -0.0903,1.88294 -0.20076,1.92843 -0.11041,0.0455 -1.13821,0.0475 -2.28399,0.004 z m -7.41929,-2.46459 c 0,-1.42761 0.10905,-2.40909 0.26767,-2.40909 0.15615,0 0.26768,0.89225 0.26768,2.14141 l 0,2.14142 1.85794,0 c 1.02187,0 1.93239,0.12045 2.02338,0.26767 0.10536,0.17049 -0.66642,0.26768 -2.12562,0.26768 l -2.29105,0 0,-2.40909 z m 15.1859,-1.49929 c -0.44275,-0.44275 0.25623,-0.64213 2.2512,-0.64213 1.59893,0 2.11962,0.0855 2.03721,0.3346 -0.11928,0.3605 -3.96002,0.63592 -4.28841,0.30753 z m 5.87134,-0.0176 c -0.4743,-0.47428 -0.006,-0.62457 1.94717,-0.62457 2.01885,0 2.91885,0.28853 1.99994,0.64115 -0.57186,0.21944 -3.72433,0.20621 -3.94711,-0.0166 z m 5.79209,-0.17395 c -0.2209,-0.35696 -0.0536,-0.39121 2.3944,-0.48997 1.99381,-0.0804 2.34221,-0.0317 2.34217,0.32741 -3e-5,0.35294 -0.37609,0.41857 -2.30067,0.40152 -1.26535,-0.0112 -2.3615,-0.11875 -2.4359,-0.23896 z m -26.84933,-4.19809 c 0,-1.24916 0.11153,-2.14142 0.26767,-2.14142 0.15615,0 0.26768,0.89226 0.26768,2.14142 0,1.24916 -0.11153,2.14141 -0.26768,2.14141 -0.15614,0 -0.26767,-0.89225 -0.26767,-2.14141 z m 31.13498,-4.21591 -0.23639,-1.00379 -1.66394,-0.0797 c -2.19012,-0.10489 -2.15217,-0.5895 0.0462,-0.5895 l 1.71011,0 0.17576,-0.93687 c 0.31893,-1.70007 0.68685,-0.98315 0.68685,1.33838 0,2.39386 -0.32063,2.96121 -0.71856,1.27147 z m -31.13498,-7.2784 c 0,-1.16909 0.12045,-2.20006 0.26767,-2.29105 0.17049,-0.10537 0.26768,0.66641 0.26768,2.12562 0,1.34891 -0.11007,2.29105 -0.26768,2.29105 -0.15597,0 -0.26767,-0.88699 -0.26767,-2.12562 z m 9.36869,-5.50317 0,-2.00758 -2.00758,0 c -1.15993,0 -2.00758,-0.11302 -2.00758,-0.26767 0,-0.15746 0.93687,-0.26768 2.27526,-0.26768 l 2.27525,0 0,2.00757 0,2.00758 2.54293,0 c 1.51684,0 2.54293,0.10801 2.54293,0.26768 0,0.16145 -1.11532,0.26767 -2.81061,0.26767 l -2.8106,0 0,-2.00757 z m 7.09343,1.7399 c -0.10537,-0.17049 0.66642,-0.26768 2.12562,-0.26768 1.34892,0 2.29105,0.11008 2.29105,0.26768 0,0.15598 -0.88699,0.26767 -2.12562,0.26767 -1.16909,0 -2.20006,-0.12045 -2.29105,-0.26767 z m 5.75505,0 c 0,-0.1576 0.94214,-0.26768 2.29106,-0.26768 1.4592,0 2.23098,0.0972 2.12561,0.26768 -0.091,0.14722 -1.12196,0.26767 -2.29105,0.26767 -1.23863,0 -2.12562,-0.11169 -2.12562,-0.26767 z m 5.88889,0 c 0,-0.15615 0.89226,-0.26768 2.14142,-0.26768 1.24916,0 2.14141,0.11153 2.14141,0.26768 0,0.15614 -0.89225,0.26767 -2.14141,0.26767 -1.24916,0 -2.14142,-0.11153 -2.14142,-0.26767 z m -28.10606,-2.14142 0,-2.14141 2.29105,0 c 1.4592,0 2.23098,0.0972 2.12562,0.26768 -0.091,0.14722 -1.00151,0.26767 -2.02338,0.26767 l -1.85794,0 0,1.87374 c 0,1.07071 -0.11472,1.87374 -0.26768,1.87374 -0.15614,0 -0.26767,-0.89226 -0.26767,-2.14142 z m 38.27778,29.63696 0,-9.17619 -1.11807,-0.39326 c -0.61494,-0.21629 -1.17342,-0.56302 -1.24107,-0.77051 -0.0896,-0.27494 0.0139,-0.3243 0.38196,-0.18201 0.27773,0.10738 0.83621,0.26209 1.24107,0.34379 l 0.73611,0.14855 0,-1.76394 c 0,-1.48999 -0.0831,-1.80844 -0.53535,-2.05045 -0.70119,-0.37527 -0.69184,-0.90639 0.0127,-0.72215 0.51106,0.13364 0.54269,0.0409 0.46844,-1.37408 l -0.0796,-1.51741 -1.17284,-0.084 c -1.00019,-0.0717 -1.14778,-0.0188 -1.00264,0.35946 0.0936,0.24392 0.24295,0.73344 0.3319,1.08782 0.22667,0.90313 -0.37266,0.8282 -0.73424,-0.0918 -0.73837,-1.87871 0.0741,-4.36935 1.76646,-5.41531 0.91872,-0.5678 0.94519,-0.63103 0.94519,-2.25761 0,-0.9204 -0.0755,-1.74898 -0.16783,-1.84129 -0.0923,-0.0923 -0.56431,-0.002 -1.04888,0.20028 -0.83115,0.34727 -1.19238,0.30585 -1.19238,-0.13674 0,-0.10644 0.54205,-0.35357 1.20455,-0.54918 1.82235,-0.53808 1.56073,-1.04182 -0.54108,-1.04182 l -1.74563,0 0.022,9.35351 0.022,9.35349 0.9262,0.0821 c 1.20715,0.10702 1.19585,0.5937 -0.0163,0.70054 l -0.94245,0.0831 0,8.41566 0,8.41566 1.73989,0 1.7399,0 0,-9.17618 z m 111.62125,-17.72534 0,-26.901525 -19.00506,0 -19.00505,0 0,13.250005 0,13.25001 14.05303,0 c 9.19023,0 14.05303,0.0926 14.05303,0.26767 0,0.17506 -4.8628,0.26768 -14.05303,0.26768 l -14.05303,0 0,13.38384 0,13.38384 19.00505,0 19.00506,0 0,-26.90152 z m -6.69192,-0.13384 c 0,-0.15614 0.89225,-0.26767 2.14142,-0.26767 1.24917,0 2.14141,0.11153 2.14141,0.26767 0,0.15615 -0.89224,0.26768 -2.14141,0.26768 -1.24917,0 -2.14142,-0.11153 -2.14142,-0.26768 z m -150.70206,12.71465 0,-12.44697 -7.76263,0 -7.76263,0 0,12.44697 0,12.44698 7.76263,0 7.76263,0 0,-12.44698 z m 195.67177,-7.89646 0,-4.55051 -18.60354,0 -18.60354,0 0,4.55051 0,4.5505 18.60354,0 18.60354,0 0,-4.5505 z m 3.80896,3.84055 c 3.11174,-1.20403 5.29572,-3.92271 5.93432,-7.38727 l 0.18501,-1.00379 -4.42879,0 -4.42879,0 0,4.41667 0,4.41667 0.79759,0 c 0.4387,0 1.312,-0.19903 1.94066,-0.44228 z m -199.48073,-21.37367 0,-12.446975 -7.76263,0 -7.76263,0 0,12.446975 0,12.44698 7.76263,0 7.76263,0 0,-12.44698 z m 45.77273,10.84092 c 0,-0.88334 -0.0979,-1.60606 -0.21759,-1.60606 -0.43319,0 -1.67236,1.5323 -1.91041,2.36232 l -0.24372,0.8498 1.18586,0 1.18586,0 0,-1.60606 z m 72.80811,-16.19445 0,-17.800515 -8.6995,0 -8.6995,0 0,17.800515 0,17.80051 8.6995,0 8.6995,0 0,-17.80051 z m 77.09093,13.25 0,-4.55051 -18.60354,0 -18.60354,0 0,4.55051 0,4.55051 18.60354,0 18.60354,0 0,-4.55051 z m 9.74328,3.54672 c -0.79276,-4.30087 -3.54212,-7.08994 -7.80262,-7.91531 l -0.86995,-0.16853 0,4.54381 0,4.54382 4.42879,0 4.42879,0 -0.18501,-1.00379 z m -159.64232,-17.19824 0,-8.565665 -1.7399,0 -1.73989,0 0,8.565665 0,8.56566 1.73989,0 1.7399,0 0,-8.56566 z m -38.27778,-9.368695 c 0,-0.16417 -1.29377,-0.26767 -3.34596,-0.26767 -2.05219,0 -3.34596,0.1035 -3.34596,0.26767 0,0.16418 1.29377,0.26768 3.34596,0.26768 2.05219,0 3.34596,-0.1035 3.34596,-0.26768 z m 33.99495,0 c 0,-0.17559 -5.75505,-0.26767 -16.7298,-0.26767 -10.97475,0 -16.7298,0.0921 -16.7298,0.26767 0,0.1756 5.75505,0.26768 16.7298,0.26768 10.97475,0 16.7298,-0.0921 16.7298,-0.26768 z m 4.28283,-2.8264 c 0,-1.70175 -0.101,-3.03166 -0.22445,-2.95536 -0.41393,0.25582 -3.25534,5.14277 -3.25534,5.59885 0,0.37612 0.28755,0.45059 1.73989,0.45059 l 1.7399,0 0,-3.09408 z"
       id="path4194"
       inkscape:connector-curvature="0" />
    <path
       style="fill:none;fill-rule:evenodd;stroke:#000000;stroke-width:1px;stroke-linecap:butt;stroke-linejoin:miter;stroke-opacity:1"
       d="m 151.96728,123.97807 c 0,0 194.28571,157.85714 387.14285,14.28572"
       id="path4196"
       inkscape:connector-curvature="0" />
    <path
       style="fill:none;fill-rule:evenodd;stroke:#000000;stroke-width:1px;stroke-linecap:butt;stroke-linejoin:miter;stroke-opacity:1"
       d="m 117.68156,128.26379 c 0,0 316.42857,224.28571 473.57143,1.42857"
       id="path4198"
       inkscape:connector-curvature="0" />
  </g>
</svg>
