<?xml version="1.0" encoding="UTF-8" standalone="no"?>
<!-- Created with Inkscape (http://www.inkscape.org/) -->

<svg
   xmlns:dc="http://purl.org/dc/elements/1.1/"
   xmlns:cc="http://creativecommons.org/ns#"
   xmlns:rdf="http://www.w3.org/1999/02/22-rdf-syntax-ns#"
   xmlns:svg="http://www.w3.org/2000/svg"
   xmlns="http://www.w3.org/2000/svg"
   xmlns:sodipodi="http://sodipodi.sourceforge.net/DTD/sodipodi-0.dtd"
   xmlns:inkscape="http://www.inkscape.org/namespaces/inkscape"
   width="151.35257mm"
   height="86.913795mm"
   viewBox="0 0 536.28863 307.96227"
   id="svg2"
   version="1.1"
   inkscape:version="0.91 r13725"
   sodipodi:docname="DC-M.svg">
  <defs
     id="defs4" />
  <sodipodi:namedview
     id="base"
     pagecolor="#ffffff"
     bordercolor="#666666"
     borderopacity="1.0"
     inkscape:pageopacity="0.0"
     inkscape:pageshadow="2"
     inkscape:zoom="0.98994949"
     inkscape:cx="100.28195"
     inkscape:cy="94.276092"
     inkscape:document-units="px"
     inkscape:current-layer="layer1"
     showgrid="false"
     fit-margin-top="0"
     fit-margin-left="0"
     fit-margin-right="0"
     fit-margin-bottom="0"
     inkscape:window-width="1600"
     inkscape:window-height="837"
     inkscape:window-x="1358"
     inkscape:window-y="-8"
     inkscape:window-maximized="1" />
  <metadata
     id="metadata7">
    <rdf:RDF>
      <cc:Work
         rdf:about="">
        <dc:format>image/svg+xml</dc:format>
        <dc:type
           rdf:resource="http://purl.org/dc/dcmitype/StillImage" />
        <dc:title></dc:title>
      </cc:Work>
    </rdf:RDF>
  </metadata>
  <g
     inkscape:label="Capa 1"
     inkscape:groupmode="layer"
     id="layer1"
     transform="translate(-87.187015,-71.638351)">
    <path
       style="fill:#000000"
       d="m 205.156,296.33187 c -0.5336,-1.68122 -1.6959,-2.00018 -8.1991,-2.25 l -7.5773,-0.29109 0.1852,-10.62816 0.1853,-10.62815 -2.633,-0.66083 c -1.4481,-0.36345 -24.0075,-0.58864 -50.1321,-0.50041 -28.438,0.096 -47.8752,-0.21564 -48.4362,-0.77666 -0.5521,-0.55207 -0.8279,-12.81305 -0.6714,-29.84234 l 0.2656,-28.90528 2.5,-1.26434 c 1.9109,-0.96644 13.8609,-1.26782 50.7172,-1.27909 l 48.2173,-0.0147 0.2827,-11.25 0.2828,-11.25 6.6088,-0.13444 c 4.3157,-0.0878 7.4997,-0.71814 9.1762,-1.81667 2.384,-1.56206 10.6977,-1.63143 116.39119,-0.97119 77.13072,0.48182 114.04124,1.04714 114.49837,1.75366 0.37102,0.57345 2.41618,1.07098 4.5448,1.10563 4.31354,0.0702 6.77202,1.4685 13.09679,7.44888 3.6194,3.42233 4.26513,4.60311 4,7.31436 -0.31101,3.1803 -0.24257,3.23739 4.18382,3.4905 4.13606,0.2365 41.02826,0.93015 98.43487,1.85078 19.70443,0.31599 23.06062,0.5925 23.82765,1.9631 0.49103,0.87742 0.97033,7.98532 1.06513,15.79535 l 0.17235,14.20004 11,0.2466 c 13.09007,0.29346 16.30284,0.85056 14.61855,2.53485 -0.78684,0.78684 -4.59367,1.07082 -11.60926,0.86603 -15.60454,-0.45552 -14.50929,-1.60509 -14.50929,15.22878 0,9.88411 -0.38245,14.72475 -1.25,15.82099 -1.08791,1.37469 -6.7612,1.66923 -43.75,2.27142 -23.375,0.38055 -45.425,0.78917 -49,0.90804 -3.575,0.11887 -12.575,0.30864 -20,0.42172 l -13.5,0.20558 -0.26287,3.74799 c -0.21752,3.10145 -1.1663,4.55993 -5.5,8.45471 -4.77715,4.29331 -5.68799,4.7105 -10.3705,4.75 -4.27226,0.036 -5.2211,0.37878 -5.65638,2.04329 -0.51919,1.98538 -1.36401,2 -115.54924,2 -113.34378,0 -115.03528,-0.0286 -115.64798,-1.95891 z m 9.2462,-6.51914 c -2.2608,-3.48048 -4.7592,-5.31291 -4.7592,-3.49057 0,0.53274 -0.675,0.96862 -1.5,0.96862 -1.9307,0 -1.889,0.58879 0.25,3.53047 1.2178,1.67481 2.7411,2.41624 5.0092,2.43811 l 3.2592,0.0314 -2.2592,-3.47805 z m 12.67297,-0.022 c -2.0039,-2.6273 -3.4167,-3.5 -5.6659,-3.5 -2.86647,0 -2.93397,0.0975 -1.55907,2.25 0.79047,1.2375 1.76877,2.8125 2.17407,3.5 0.4052,0.6875 2.3081,1.25 4.2286,1.25 l 3.4919,0 -2.6696,-3.5 z m 14.939,2.2916 c -2.3056,-3.73048 -4.993,-5.7916 -7.5515,-5.7916 -3.3699,0 -3.4309,0.33285 -0.7516,4.09563 1.6066,2.25623 2.8471,2.90437 5.559,2.90437 2.474,0 3.2734,-0.35201 2.7441,-1.2084 z m 12.5972,0.4584 c -0.085,-2.01519 -5.1128,-6.25 -7.4204,-6.25 -3.0835,0 -3.1277,0.37712 -0.4799,4.09563 1.4777,2.07517 2.9052,2.90437 5,2.90437 1.6125,0 2.9177,-0.3375 2.9003,-0.75 z m 12.5965,-0.82798 c -0.8679,-0.86788 -2.0409,-2.44288 -2.6066,-3.5 -0.6597,-1.23254 -2.0922,-1.92202 -3.9935,-1.92202 -3.5229,0 -3.5911,0.31163 -0.8967,4.09563 1.609,2.25959 2.8458,2.90437 5.5714,2.90437 3.191,0 3.3627,-0.14067 1.9254,-1.57798 z m 12.99998,0 c -0.86789,-0.86788 -2.04086,-2.44288 -2.60661,-3.5 -0.70679,-1.32064 -2.09833,-1.92202 -4.44741,-1.92202 l -3.41876,0 2.20394,3.45767 c 1.87186,2.93667 2.77978,3.46406 6.02539,3.5 3.48075,0.0386 3.68075,-0.0983 2.24345,-1.53565 z m 13.4339,0.82798 c -0.003,-2.0419 -4.96224,-6.25 -7.36513,-6.25 -3.10632,0 -3.1699,0.28362 -0.91804,4.09571 1.33972,2.26797 2.4352,2.90429 5,2.90429 1.80641,0 3.28384,-0.3375 3.28317,-0.75 z m 10.76041,-2.73762 c -1.67209,-2.5813 -2.97383,-3.49084 -5.00919,-3.5 -3.29637,-0.0148 -3.35405,0.33057 -0.68191,4.08325 1.48017,2.07871 2.9042,2.90437 5.0092,2.90437 l 2.9411,0 -2.2592,-3.48762 z m 14.60244,1.98762 c -0.31659,-0.825 -0.92498,-1.5 -1.35199,-1.5 -0.42701,0 -1.01173,-0.9 -1.29939,-2 -0.40259,-1.53951 -1.36401,-2 -4.17565,-2 -3.89483,0 -3.90911,0.40396 -0.16645,4.7084 2.31349,2.66074 7.95581,3.2994 6.99348,0.7916 z m 11.3644,-2 c -2.18638,-2.38229 -4.09553,-3.5 -5.9783,-3.5 l -2.76612,0 2.2592,3.48762 c 1.90929,2.94746 2.8352,3.48954 5.9783,3.5 l 3.71911,0.0124 -3.21219,-3.5 z m 12.97793,0.0423 c -1.75807,-2.75815 -2.86147,-3.46624 -5.45396,-3.5 -3.83391,-0.0499 -3.9733,0.54183 -0.98659,4.18835 1.57931,1.92819 3.17816,2.73636 5.44055,2.75 l 3.20396,0.0193 -2.20396,-3.45767 z m 13.05523,-0.0299 c -1.82378,-2.81546 -2.89514,-3.49001 -5.55888,-3.5 -2.41021,-0.009 -3.08412,0.32682 -2.5,1.24593 3.3658,5.29608 3.9129,5.74169 7.04943,5.74169 l 3.26865,0 -2.2592,-3.48762 z m 12.67301,-0.0124 c -2.14234,-2.80876 -3.35149,-3.5 -6.12232,-3.5 -3.14493,0 -3.31206,0.14067 -1.87476,1.57798 0.86789,0.86788 2.04086,2.44288 2.60661,3.5 0.71528,1.33651 2.09964,1.92202 4.54435,1.92202 l 3.5157,0 -2.66958,-3.5 z m 14.5678,2.50761 c 0,-2.27426 -4.46212,-6.00761 -7.18034,-6.00761 -3.36982,0 -3.4309,0.33285 -0.75157,4.09563 1.47766,2.07517 2.90516,2.90437 5,2.90437 1.61255,0 2.93191,-0.44658 2.93191,-0.99239 z m 11.4322,-2.50761 c -1.96214,-2.57251 -3.43312,-3.5 -5.55089,-3.5 -3.45639,0 -3.55123,0.64933 -0.6179,4.23068 1.60459,1.95906 3.16934,2.73614 5.53748,2.75 l 3.30089,0.0193 -2.66958,-3.5 z m 14.38923,2.11159 c -0.72679,-0.76362 -2.10453,-2.33862 -3.06164,-3.5 -1.07757,-1.30753 -2.90253,-2.11159 -4.79263,-2.11159 l -3.05242,0 2.79263,3.49997 c 2.18378,2.73691 3.51677,3.49998 6.11406,3.5 2.80157,3e-5 3.1146,-0.21728 2,-1.38838 z m 11.17857,-2.11159 c -2.29377,-2.36657 -4.3033,-3.5 -6.20536,-3.5 l -2.81303,0 2.2592,3.48762 c 1.94798,3.0072 2.80278,3.48933 6.20536,3.5 l 3.94616,0.0124 -3.39233,-3.5 z m 12.37057,1.2743 c 1.43888,-2.28109 -0.90744,-4.7743 -4.49301,-4.7743 -3.43772,0 -3.49761,0.32048 -0.77457,4.14463 2.21666,3.11302 3.59704,3.27802 5.26758,0.62967 z M 199.393,288.6014 c -0.9625,-0.25152 -2.5375,-0.25152 -3.5,0 -0.9625,0.25153 -0.175,0.45733 1.75,0.45733 1.925,0 2.7125,-0.2058 1.75,-0.45733 z m 246.00629,-0.56067 c -0.64056,-1.9513 -6.75632,-2.23495 -6.75632,-0.31336 0,1.12696 1.00027,1.56336 3.58333,1.56336 2.41885,0 3.44999,-0.40621 3.17299,-1.25 z m 7.24368,-6.63448 c 0,-2.2864 -2.9209,-6.28244 -4.07209,-5.57096 -0.82094,0.50736 -0.5828,3.27847 0.61776,7.18858 0.53844,1.75365 3.45433,0.38817 3.45433,-1.61762 z M 198.786,282.04073 c 0.1964,-0.6875 0.357,-9.8 0.357,-20.25 0,-18.94236 -0.01,-19.00097 -2.25,-19.31955 l -2.25,-0.31955 0,20.56955 c 0,19.51537 0.097,20.56955 1.893,20.56955 1.0412,0 2.0537,-0.5625 2.25,-1.25 z m 7.857,-1.59719 c 0,-0.46595 1.0125,-1.33549 2.25,-1.93232 2.1223,-1.02352 2.0655,-1.08897 -1,-1.15281 -2.6059,-0.0543 -3.25,0.32869 -3.25,1.93232 0,1.1 0.45,2 1,2 0.55,0 1,-0.38123 1,-0.84719 z m 236.77159,-18.39635 -0.27162,-19.25646 -10.72624,-0.28359 -10.72624,-0.28359 -0.27376,17.28359 -0.27376,17.28359 -78.5,0.50915 c -43.175,0.28003 -77.7125,0.61753 -76.75,0.75 0.9625,0.13247 1.75,0.87663 1.75,1.65369 0,1.20571 12.90448,1.42656 88.02162,1.50646 l 88.02161,0.0936 -0.27161,-19.25646 z m -201.77162,-2.25646 0,-17.5 -9,0 -9,0 0,17.5 0,17.5 9,0 9,0 0,-17.5 z m -23.21097,-0.5 c 0.4034,-17.4434 0.594,-17 -7.3081,-17 l -6.4809,0 0,15.04569 0,15.04569 6.75,-0.29569 6.75,-0.29569 0.289,-12.5 z m 198.21097,-1.94941 0,-14.9494 -10.75019,0.11828 c -6.69167,0.0736 -11.59955,-0.33628 -13,-1.08577 -1.44209,-0.77179 -2.24981,-0.83242 -2.24981,-0.16888 0,0.56935 -1.8,1.03518 -4,1.03518 l -4,0 -0.0318,10.75 c -0.0217,7.35047 -0.45191,11.30341 -1.36025,12.5 -1.2418,1.63587 -5.6745,1.75 -67.96819,1.75 l -66.63976,0 0,2.5 0,2.5 85,0 85,0 0,-14.94941 z m 42.03896,12.76085 c -1.12143,-1.20371 -2.03896,-2.73057 -2.03896,-3.39301 0,-0.66245 -0.7118,-1.4776 -1.58179,-1.81144 -2.48064,-0.95191 -6.41821,-0.7108 -6.41821,0.39301 0,0.55 0.3375,1.00285 0.75,1.00632 0.4125,0.003 1.51657,1.35348 2.45349,3 1.39499,2.45153 2.35281,2.99368 5.28895,2.99368 l 3.58547,0 -2.03895,-2.18856 z m 13.95607,1.43856 c -0.0107,-1.61085 -4.77708,-6.60233 -6.58472,-6.89564 -3.72568,-0.60455 -4.65738,0.46406 -2.46055,2.82209 1.12763,1.21037 2.05024,2.79082 2.05024,3.51211 0,0.83212 1.27922,1.31144 3.5,1.31144 1.925,0 3.49776,-0.3375 3.49503,-0.75 z m 11.00497,-1.42126 c 0,-2.94496 -2.79781,-5.82874 -5.65499,-5.82874 -2.88896,0 -2.96102,1.32615 -0.27692,5.09563 2.49223,3.50001 5.93191,3.92511 5.93191,0.73311 z m 14,0.30612 c 0,-1.59123 -4.12719,-6.13486 -5.57258,-6.13486 -1.79734,0 -1.95469,5.62058 -0.17742,6.33772 2.09377,0.84485 5.75,0.71586 5.75,-0.20286 z m 8.96456,-5.38486 c 0.0195,-0.4125 -1.31456,-0.75 -2.96456,-0.75 -3.48896,0 -3.60336,0.31702 -1.25,3.46372 l 1.75,2.33994 1.21456,-2.15183 c 0.66802,-1.18351 1.23052,-2.48933 1.25,-2.90183 z m 15.44043,3 c -2.67648,-3.16121 -3.59286,-3.71725 -6.15499,-3.73469 -2.68152,-0.0182 -2.74018,0.30695 -0.63499,3.51987 1.2131,1.85143 2.49597,2.46482 5.15499,2.46482 l 3.53998,0 -1.90499,-2.25 z m 13.59501,1.17857 c 0,-0.58928 -0.675,-1.74643 -1.5,-2.57143 -1.55747,-1.55747 -1.94148,-0.67119 -0.89301,2.06107 0.68478,1.78451 2.39301,2.14883 2.39301,0.51036 z m 11.28154,-0.17857 c 0.92264,-2.57316 -1.28478,-4.75 -4.81672,-4.75 -4.08124,0 -4.1864,0.30078 -1.21482,3.47457 2.46405,2.63172 5.32807,3.23735 6.03154,1.27543 z m 13.18597,-1.53571 c -1.63686,-2.77098 -5.46751,-3.87922 -5.46751,-1.58179 0,2.93947 1.36133,4.3675 4.16352,4.3675 l 2.94955,0 -1.64556,-2.78571 z m 7.63382,-2.51296 c -1.82626,-1.82626 -2.50973,0.16602 -1.0195,2.9718 1.40273,2.64105 1.42181,2.64522 1.75283,0.38316 0.18407,-1.25783 -0.14593,-2.76756 -0.73333,-3.35496 z m -461.1013,-24.24702 0,-25.54569 -6.75,0.29569 -6.75,0.29569 -0.2672,25.25 -0.2671,25.25 7.0171,0 7.0172,0 0,-25.54569 z m 83,14.26493 0,-11.28076 -3.0914,-1.16687 c -3.4909,-1.31766 -3.084,-3.27161 0.6812,-3.27161 l 2.4718,0 -0.2808,-12.25 -0.2808,-12.25 -38.5,0 -38.5,0 -0.2669,25.75 -0.2669,25.75 39.0169,0 39.0169,0 0,-11.28076 z m -58.4269,-12.5567 c -1.0576,-0.20751 -1.4991,-0.91294 -1.1465,-1.83179 0.3154,-0.82188 0.5734,-1.68252 0.5734,-1.91254 0,-0.66452 35.6634,-0.48459 37.4182,0.18878 0.87,0.33384 1.5818,1.21463 1.5818,1.9573 0,1.07406 -3.7547,1.41019 -18.3535,1.64301 -10.0943,0.16098 -19.1274,0.14084 -20.0734,-0.0448 z m 42.4269,-0.13688 c -2.4058,-1.52903 0.7735,-4.02541 4.25,-3.33703 2.8029,0.555 3.9115,3.31137 1.3318,3.31137 -0.78,0 -2.0175,0.22027 -2.75,0.4895 -0.7325,0.26922 -2.0068,0.0605 -2.8318,-0.46384 z m 405.99997,22.97434 c 0,-0.55 -0.47656,-1 -1.05902,-1 -0.58246,0 -0.7809,0.45 -0.44098,1 0.33992,0.55 0.81648,1 1.05902,1 0.24254,0 0.44098,-0.45 0.44098,-1 z m -202.61524,-4.56029 c 0.97253,-2.53437 0.71625,-13.04383 -0.38897,-15.95078 -0.85894,-2.25918 -1.54606,-2.61623 -4.75,-2.4682 -2.06018,0.0952 -11.95829,0.12945 -21.99579,0.0762 -15.51249,-0.0824 -18.25,-0.32193 -18.25,-1.59693 0,-1.28889 3.16667,-1.5 22.5,-1.5 l 22.5,0 0,-2.8 c 0,-5.99387 3.09165,-6.48842 13.30481,-2.12827 8.22582,3.51171 9.83222,3.46465 20.76035,-0.60813 8.93663,-3.33057 10.93484,-2.958 10.93484,2.03885 l 0,3.56521 10.75,-0.28383 10.75,-0.28383 0,-19 0,-19 -87.63195,-0.25544 c -86.97785,-0.25353 -87.63585,-0.24047 -88.15635,1.75 -0.4812,1.84016 -1.3563,2.00544 -10.6181,2.00544 l -10.0936,0 0,2.5 c 0,1.74074 0.5467,2.5 1.8,2.5 2.8861,0 4.2,2.09254 4.2,6.68903 l 0,4.28903 41.75,0.26097 41.75,0.26097 0,4 0,4 -37,0.2777 -37,0.2777 -2.4167,5.09798 c -2.9769,6.27978 -2.9785,6.68298 -0.051,12.2019 1.9961,3.76258 2.1593,4.70866 1.0443,6.05222 -0.727,0.87588 -2.2147,1.5925 -3.3062,1.5925 -1.3989,0 -1.8054,0.46687 -1.3776,1.58179 0.3338,0.86998 0.607,2.64975 0.607,3.95503 l 0,2.37325 59.88474,0.0665 c 54.06156,0.06 59.94459,-0.0894 60.5,-1.53682 z M 285.39297,242.5244 c -22.8606,-0.22761 -26.75,-0.48206 -26.75,-1.75 0,-1.27691 3.9369,-1.48154 28.25,-1.46836 25.6254,0.0139 34.66822,0.75976 29.47197,2.4309 -3.20021,1.0292 -4.18277,1.05418 -30.97197,0.78746 z m 37.5,-0.0215 c -1.2375,-0.19321 -2.25,-1.02215 -2.25,-1.8421 0,-1.10681 0.94601,-1.41087 3.6727,-1.18045 2.01999,0.17071 3.83839,0.81557 4.04089,1.43305 0.43014,1.31155 -2.24988,2.09124 -5.46359,1.5895 z m 152.72462,15.25724 c -0.69864,-0.84182 -1.76624,-4.55432 -2.37244,-8.25 -0.95251,-5.80693 -1.40773,-6.76281 -3.35218,-7.03897 -2.92269,-0.41509 -2.87829,-1.99108 0.0879,-3.1188 1.94766,-0.7405 2.52455,-2.01553 3.45644,-7.63932 0.61522,-3.71275 1.70069,-7.11974 2.41214,-7.57108 1.3888,-0.88105 -0.0237,-0.98201 -16.95627,-1.21202 l -10.24987,-0.13922 -1.7e-4,8.20794 -1.7e-4,8.20793 7.66975,0.29207 c 5.02727,0.19143 7.81224,0.72272 8.08333,1.54206 0.3077,0.92998 -1.62513,1.25 -7.54956,1.25 l -7.96314,0 -0.44704,6.18034 c -0.82929,11.46472 -1.69053,10.81966 14.44568,10.81966 12.46064,0 13.86572,-0.16886 12.7356,-1.53058 z m 21.3344,0.28058 c -0.44496,-0.6875 -1.50731,-4.4 -2.36078,-8.25 l -1.55176,-7 -5.44697,0 -5.44698,0 -0.80182,6.5 c -0.441,3.575 -1.22907,6.9275 -1.75127,7.45 -2.09168,2.09291 -0.54841,2.55 8.60958,2.55 7.41202,0 9.37731,-0.28076 8.75,-1.25 z m 83.19098,-7.24999 0,-8 -7,0 -7,0 -0.53796,5 c -0.74824,6.95439 -2.45314,9.84272 -5.00403,8.47753 -1.13616,-0.60806 -1.95801,-2.08908 -1.95801,-3.52846 0,-4.60583 -2.373,-10.44907 -4.24348,-10.44907 -2.40792,0 -2.22237,-2.06542 0.24348,-2.71025 1.27635,-0.33378 2,-1.36402 2,-2.84736 0,-1.2784 0.45,-2.60247 1,-2.94239 0.55,-0.33992 1,-1.87173 1,-3.40403 0,-1.5323 0.87447,-3.57738 1.94327,-4.54463 1.88119,-1.70245 1.99301,-1.6396 3.5,1.96713 0.8562,2.04918 1.55673,5.47082 1.55673,7.60365 l 0,3.87788 7.5,0 c 4.125,0 7.53113,-0.3375 7.56917,-0.75 0.038,-0.4125 0.20435,-4.0125 0.36956,-8 l 0.30039,-7.25 -9.11956,-0.0777 c -5.01576,-0.0427 -28.01956,-0.0963 -51.11956,-0.11909 -35.09824,-0.0346 -41.93168,0.18354 -41.58424,1.32765 0.22867,0.75301 0.92693,4.2941 1.55169,7.8691 l 1.13593,6.5 5.69831,0.2999 c 3.13407,0.16495 5.74688,-0.06 5.80625,-0.5 1.3819,-10.2411 2.52737,-13.81921 4.51478,-14.10277 2.55747,-0.3649 3.37936,1.34079 4.24169,8.80287 l 0.63559,5.5 5.6297,0.29631 c 6.24654,0.32879 5.58476,1.10919 7.45924,-8.79631 1.30393,-6.89047 4.46632,-8.02987 6.24487,-2.25 0.63467,2.0625 1.2692,5.325 1.41006,7.25 l 0.25613,3.5 5.75,0.2999 5.75,0.29991 0,-2.99089 c 0,-1.64499 0.45,-3.269 1,-3.60892 0.55,-0.33992 1,-1.83323 1,-3.31847 0,-1.5772 0.7963,-3.19774 1.91445,-3.89603 1.62899,-1.01732 2.15085,-0.83478 3.5,1.22427 0.90965,1.38831 1.58555,4.53665 1.58555,7.3855 0,4.33171 0.27724,5.00642 2.17167,5.28518 2.99813,0.44116 3.4554,2.5928 0.63596,2.99245 -1.96666,0.27877 -2.35055,0.99202 -2.59808,4.8271 -0.15975,2.475 -0.98518,5.99792 -1.83428,7.82872 -1.45263,3.13211 -1.65094,3.23178 -3.35744,1.68741 -0.9975,-0.90272 -2.06322,-3.07564 -2.36828,-4.82872 -1.81006,-10.40202 -1.2374,-9.68741 -7.76305,-9.68741 l -5.8865,0 0,4.37788 c 0,4.61624 -2.38374,11.62212 -3.9544,11.62212 -0.51016,0 -1.28862,-0.5625 -1.72992,-1.25 -1.12313,-1.74975 -3.21855,-9.78794 -3.27155,-12.5499 -0.0415,-2.16378 -0.38447,-2.28216 -5.79413,-2 l -5.75,0.2999 -0.64293,5 c -0.35361,2.75 -1.14111,6.26679 -1.75,7.8151 -0.60889,1.5483 -1.10707,3.01591 -1.10707,3.26134 0,0.24544 18.1125,0.32864 40.25,0.1849 l 40.25,-0.26134 0,-8 z M 199.143,218.89038 c 0,-19.869 0,-19.90089 -2.25,-20.24373 l -2.25,-0.34337 0,20.56327 0,20.56328 2.25,-0.31955 c 2.2473,-0.31916 2.25,-0.34385 2.25,-20.2199 z m 18.8416,18.65035 c 0.2619,-0.9625 0.5267,-7.43565 0.5883,-14.38477 l 0.1121,-12.63477 -3.271,-0.53815 c -1.7991,-0.29599 -4.846,-0.46034 -6.771,-0.36523 l -3.5,0.17292 -0.2804,13.44955 c -0.1542,7.39725 -0.056,14.03475 0.2186,14.75 0.3324,0.86612 2.4909,1.30045 6.463,1.30045 4.8319,0 6.0544,-0.3322 6.4404,-1.75 z m 23.65837,-15.75 0,-17.5 -9,0 -9,0 0,17.5 0,17.5 9,0 9,0 0,-17.5 z m 144.5,16.5 c -0.33992,-0.55 -1.26648,-1 -2.05902,-1 -0.79254,0 -1.44098,0.45 -1.44098,1 0,0.55 0.92656,1 2.05902,1 1.13246,0 1.7809,-0.45 1.44098,-1 z m 30,0 c 0.78687,-1.27319 -1.52988,-1.27319 -3.5,0 -1.21948,0.78809 -1.09025,0.97224 0.69098,0.98469 1.20504,0.008 2.4691,-0.43469 2.80902,-0.98469 z m 33.68333,-22.21667 c -0.71756,-0.71756 -1.18333,-0.7766 -1.18333,-0.15 0,1.33478 1.18261,2.51739 1.85,1.85 0.28417,-0.28416 -0.0158,-1.04916 -0.66667,-1.7 z m 115.16406,-1.37589 c -1.06305,-1.62243 -2.51814,-2.40744 -4.4624,-2.40744 -3.2966,0 -3.65613,1.01826 -1.13499,3.21452 4.06381,3.54016 8.06756,2.96286 5.59739,-0.80708 z m -102.36963,1.84256 c -0.0437,-1.47562 -3.61568,-5.38506 -6.01149,-6.5795 -1.68713,-0.84112 -2.62387,-2.34881 -3.03647,-4.88717 -0.80211,-4.93467 -7.24686,-12.78333 -10.49675,-12.78333 -1.49604,0 -2.43305,0.57767 -2.43305,1.5 0,0.87277 0.90792,1.5 2.17126,1.5 3.41012,0 5.82859,2.86443 5.82996,6.90499 8.1e-4,2.39108 0.83804,4.56804 2.5,6.50055 1.37433,1.59805 2.49878,3.20069 2.49878,3.56144 0,0.36074 0.91753,1.64075 2.03896,2.84446 1.90665,2.04655 6.98806,3.10004 6.9388,1.43856 z m 12.82349,0 c -2.93085,-6.01535 -3.17345,-6.25 -6.46177,-6.25 -3.9526,0 -4.0343,0.3027 -1.08948,4.03651 1.49379,1.89401 3.20227,2.87143 5.08333,2.90816 1.55834,0.0304 2.6689,-0.28217 2.46792,-0.69467 z m 10.19875,-0.20295 c 0,-2.88058 -2.50065,-6.04705 -4.77552,-6.04705 -2.30459,0 -2.36672,0.13742 -1.01724,2.25 0.79049,1.2375 1.7688,2.8125 2.17402,3.5 0.862,1.46246 3.61874,1.68875 3.61874,0.29705 z m 16,0.41246 c 0,-1.90658 -4.71402,-6.45951 -6.68806,-6.45951 -2.76676,0 -3.08314,2.49035 -0.65695,5.17126 1.4741,1.62886 7.34501,2.65857 7.34501,1.28825 z m 13,-0.33707 c 0,-0.48265 -0.675,-1.43775 -1.5,-2.12244 -1.2532,-1.04007 -1.5,-0.89568 -1.5,0.87755 0,1.21996 0.63782,2.12245 1.5,2.12245 0.825,0 1.5,-0.3949 1.5,-0.87756 z m 13,0.0519 c 0,-1.56082 -4.50301,-4.91984 -7.25,-5.40813 -3.31841,-0.58987 -3.46855,0.3922 -0.56966,3.72621 2.07546,2.387 7.81966,3.62251 7.81966,1.68192 z m 11.82332,-0.80483 c -0.17782,-0.89679 -1.33029,-2.298 -2.56103,-3.11381 -1.99974,-1.32555 -2.30357,-1.31167 -2.85699,0.13052 -1.00651,2.62292 0.34697,4.61381 3.13664,4.61381 1.87349,0 2.51394,-0.45773 2.28138,-1.63052 z m 39.18582,0.14153 c -1.24904,-1.50499 -3.00914,-1.18445 -3.00914,0.54801 0,0.51754 0.9551,0.94098 2.12244,0.94098 1.76626,0 1.91507,-0.24988 0.8867,-1.48899 z m -32.39307,-3.32351 c -1.39847,-1.39847 -1.61607,-1.41218 -1.61607,-0.10179 0,2.05451 2.33994,4.39446 2.85357,2.85358 0.20822,-0.62465 -0.34866,-1.86295 -1.2375,-2.75179 z M 213.1975,204.55063 c -2.7137,-0.2778 -4.6647,-1.24005 -6.2488,-3.08189 -2.2286,-2.59117 -2.3033,-2.60666 -2.3045,-0.47767 0,2.95067 2.5665,4.2674 7.9988,4.10118 l 4.5,-0.1377 -3.9455,-0.40392 z m 41.44087,-9.00987 c -0.01,-1.6528 -6.222,-7.25 -8.0461,-7.25 -2.501,0 -2.4669,1.46435 0.1188,5.09563 1.4777,2.07517 2.9052,2.90437 5,2.90437 1.6125,0 2.9298,-0.3375 2.9273,-0.75 z m 10.8963,-0.16192 c 2.38,-1.50708 -2.3126,-7.08808 -5.9598,-7.08808 -3.583,0 -3.6006,0.25669 -0.3132,4.56672 2.7078,3.55014 3.8949,4.02728 6.273,2.52136 z m -50.53007,-1.58808 c -0.3166,-0.825 -0.9774,-1.5 -1.4686,-1.5 -0.4911,0 -0.893,-0.675 -0.893,-1.5 0,-0.825 -0.6199,-1.5 -1.3776,-1.5 -0.7576,0 -1.9377,0.675 -2.6224,1.5 -1.7597,2.12027 0.4038,4.5 4.0911,4.5 2.1191,0 2.6991,-0.38319 2.2705,-1.5 z m 12.61617,0.75 c -0.06,-2.02744 -3.8464,-5.28371 -6.8327,-5.87626 l -3.35487,-0.66569 2.3549,3.63359 c 1.76097,2.71717 3.04847,3.63672 5.10487,3.64598 1.5125,0.007 2.74,-0.32512 2.7278,-0.73762 z m 12.4036,-1.79061 c -1.9361,-2.95493 -4.4042,-4.45939 -7.3157,-4.45939 -2.5764,0 -2.5761,0.47448 0,4.09563 1.5999,2.24634 2.8513,2.90437 5.5234,2.90437 l 3.455,0 -1.6647,-2.54061 z m 39.6186,1.94498 c 0,-0.3276 -0.93064,-1.9026 -2.06809,-3.5 -1.47766,-2.07517 -2.90516,-2.90437 -5,-2.90437 -3.50821,0 -3.60931,0.64014 -0.6685,4.23068 1.43706,1.75452 3.21966,2.73759 4.98659,2.75 1.5125,0.0106 2.75,-0.24871 2.75,-0.57631 z m 11.39578,-2.31152 c -1.06524,-1.80329 -2.85602,-3.1349 -4.71626,-3.50695 -4.01383,-0.80276 -4.29358,-0.25701 -1.72052,3.35653 1.59668,2.24232 2.97401,3.05757 5.16563,3.05757 l 2.98844,0 -1.71729,-2.90715 z m 13.694,1.07491 c -1.43583,-2.68287 -3.98385,-4.5524 -6.70037,-4.9162 -2.84659,-0.38121 -2.92055,0.0407 -0.6738,3.84415 1.34559,2.27791 2.43155,2.90429 5.03518,2.90429 2.90839,0 3.19811,-0.22696 2.33899,-1.83224 z m 11.66975,-1.41776 c -1.46452,-1.90632 -3.5847,-3.38082 -5.12816,-3.56642 -3.09696,-0.37241 -3.19622,0.0516 -0.91576,3.91213 1.36053,2.30319 2.4219,2.90429 5.12816,2.90429 l 3.41255,0 -2.49679,-3.25 z m 13,0 c -2.53847,-3.30425 -7.75953,-5.07446 -7.75953,-2.63087 0,2.42128 4.29588,5.88087 7.30247,5.88087 l 2.95385,0 -2.49679,-3.25 z m 14.36828,1.48881 c -1.75821,-3.28524 -4.62197,-5.18385 -6.91469,-4.58429 -2.20311,0.57612 -3.11825,2.34548 -1.21312,2.34548 0.55,0 1,0.6375 1,1.41667 0,1.68486 1.50325,2.39718 5.28518,2.50438 2.35875,0.0669 2.64087,-0.1907 1.84263,-1.68224 z m 13.87219,1.41673 c 0,-1.36301 -5.01082,-5.6454 -7.25,-6.19607 -3.21162,-0.78981 -3.35376,-0.29013 -1.03439,3.63624 1.33972,2.26797 2.4352,2.90429 5,2.90429 1.80641,0 3.28439,-0.15501 3.28439,-0.34446 z m 11.07917,-2.54435 c -2.04132,-2.86678 -6.27745,-4.72471 -8.14326,-3.57158 -0.56225,0.34749 -0.0925,1.83608 1.11408,3.5306 1.62657,2.28429 2.85732,2.92979 5.5862,2.92979 l 3.5,0 -2.05702,-2.88881 z m 13.16104,0.77722 c -3.45834,-4.19639 -4.42262,-4.88841 -6.81164,-4.88841 -2.9578,0 -2.99289,0.39874 -0.36048,4.09563 1.59299,2.23713 2.85428,2.90437 5.49022,2.90437 3.36515,0 3.39315,-0.0351 1.6819,-2.11159 z m 12.67749,-0.78586 c -1.20561,-1.63067 -3.47455,-3.16392 -5.18966,-3.50694 -3.82204,-0.76441 -4.51286,-0.12031 -2.38858,2.227 0.9133,1.00918 1.66054,2.36194 1.66054,3.00613 0,0.70125 1.61715,1.17126 4.02994,1.17126 l 4.02993,0 -2.14217,-2.89745 z m 14.06006,2.14745 c -0.067,-2.2589 -4.0202,-5.57405 -6.84748,-5.74225 -1.72165,-0.10242 -3.13028,-0.0153 -3.13028,0.19351 0,0.20885 0.98463,1.7115 2.18806,3.33923 1.52224,2.05894 3.04372,2.95951 5,2.95951 1.54657,0 2.80193,-0.3375 2.7897,-0.75 z m 13.02224,-0.13922 c 0,-1.72915 -3.53425,-4.90746 -6.10154,-5.48705 -3.64828,-0.82362 -4.1676,0.18956 -1.80082,3.51339 1.44976,2.036 2.88536,2.86288 4.97045,2.86288 1.61255,0 2.93191,-0.40015 2.93191,-0.88922 z m 13.5,0.12391 c -0.55,-0.40408 -1.49557,-1.63469 -2.10128,-2.73469 -0.73041,-1.32649 -2.35627,-2.10608 -4.828,-2.31502 l -3.72673,-0.31501 2.26606,3.06501 c 1.79685,2.43037 3.00361,3.06185 5.82801,3.04971 1.95907,-0.008 3.11194,-0.34593 2.56194,-0.75 z M 199.393,192.60143 c -0.9625,-0.25152 -2.5375,-0.25152 -3.5,0 -0.9625,0.25153 -0.175,0.45733 1.75,0.45733 1.925,0 2.7125,-0.2058 1.75,-0.45733 z m 416.87999,49.54209 c -1.50989,-0.87722 -1.60617,-1.25354 -0.5,-1.95428 1.95134,-1.23613 6.62612,-1.10208 7.43908,0.21332 1.48082,2.39603 -3.61219,3.67382 -6.93908,1.74096 z"
       id="path4169"
       inkscape:connector-curvature="0" />
    <text
       xml:space="preserve"
       style="font-style:normal;font-weight:normal;font-size:40px;line-height:125%;font-family:sans-serif;letter-spacing:0px;word-spacing:0px;fill:#000000;fill-opacity:1;stroke:none;stroke-width:1px;stroke-linecap:butt;stroke-linejoin:miter;stroke-opacity:1"
       x="164.65488"
       y="100.79851"
       id="text4173"
       sodipodi:linespacing="125%"><tspan
         sodipodi:role="line"
         id="tspan4175"
         x="164.65488"
         y="100.79851">V+</tspan></text>
    <text
       xml:space="preserve"
       style="font-style:normal;font-weight:normal;font-size:40px;line-height:125%;font-family:sans-serif;letter-spacing:0px;word-spacing:0px;fill:#000000;fill-opacity:1;stroke:none;stroke-width:1px;stroke-linecap:butt;stroke-linejoin:miter;stroke-opacity:1"
       x="177.78685"
       y="379.60062"
       id="text4177"
       sodipodi:linespacing="125%"><tspan
         sodipodi:role="line"
         id="tspan4179"
         x="177.78685"
         y="379.60062">V-</tspan></text>
    <path
       style="fill:none;fill-rule:evenodd;stroke:#000000;stroke-width:3;stroke-linecap:butt;stroke-linejoin:miter;stroke-miterlimit:4;stroke-dasharray:none;stroke-opacity:1"
       d="m 135.36044,255.35185 c 0,0 -67.680219,120.20815 34.34519,115.15739"
       id="path4183"
       inkscape:connector-curvature="0" />
    <path
       style="fill:none;fill-rule:evenodd;stroke:#000000;stroke-width:3;stroke-linecap:butt;stroke-linejoin:miter;stroke-miterlimit:4;stroke-dasharray:none;stroke-opacity:1"
       d="m 395.9798,261.41276 c 0,0 -59.599,156.57365 -159.6041,106.06602"
       id="path4185"
       inkscape:connector-curvature="0" />
    <path
       style="fill:none;fill-rule:evenodd;stroke:#000000;stroke-width:3;stroke-linecap:butt;stroke-linejoin:miter;stroke-miterlimit:4;stroke-dasharray:none;stroke-opacity:1"
       d="m 324.25897,222.01681 c 0,0 59.599,-137.380744 -89.90358,-135.360439"
       id="path4187"
       inkscape:connector-curvature="0" />
    <path
       style="fill:none;fill-rule:evenodd;stroke:#000000;stroke-width:3;stroke-linecap:butt;stroke-linejoin:miter;stroke-miterlimit:4;stroke-dasharray:none;stroke-opacity:1"
       d="m 98.994949,225.04727 c 0,0 -45.456864,-145.461966 54.548241,-137.380746"
       id="path4189"
       inkscape:connector-curvature="0" />
    <circle
       style="opacity:0.906;fill:none;fill-opacity:1;fill-rule:evenodd;stroke:#000000;stroke-width:5;stroke-linejoin:round;stroke-miterlimit:4;stroke-dasharray:none;stroke-opacity:1"
       id="path4193-7"
       cx="98.994949"
       cy="225.04727"
       r="3.5355339" />
    <circle
       style="opacity:0.906;fill:none;fill-opacity:1;fill-rule:evenodd;stroke:#000000;stroke-width:5;stroke-linejoin:round;stroke-miterlimit:4;stroke-dasharray:none;stroke-opacity:1"
       id="path4193-2"
       cx="136.37061"
       cy="255.35185"
       r="3.5355339" />
    <circle
       style="opacity:0.906;fill:none;fill-opacity:1;fill-rule:evenodd;stroke:#000000;stroke-width:5;stroke-linejoin:round;stroke-miterlimit:4;stroke-dasharray:none;stroke-opacity:1"
       id="path4193-0"
       cx="323.24881"
       cy="217.9762"
       r="3.5355339" />
    <circle
       style="opacity:0.906;fill:none;fill-opacity:1;fill-rule:evenodd;stroke:#000000;stroke-width:5;stroke-linejoin:round;stroke-miterlimit:4;stroke-dasharray:none;stroke-opacity:1"
       id="path4193-1"
       cx="400.02042"
       cy="258.38229"
       r="3.5355339" />
    <circle
       style="opacity:0.906;fill:none;fill-opacity:1;fill-rule:evenodd;stroke:#000000;stroke-width:5;stroke-linejoin:round;stroke-miterlimit:4;stroke-dasharray:none;stroke-opacity:1"
       id="path4193-78"
       cx="232.33508"
       cy="86.656357"
       r="3.5355339" />
    <circle
       style="opacity:0.906;fill:none;fill-opacity:1;fill-rule:evenodd;stroke:#000000;stroke-width:5;stroke-linejoin:round;stroke-miterlimit:4;stroke-dasharray:none;stroke-opacity:1"
       id="path4193-9"
       cx="158.59395"
       cy="86.656372"
       r="3.5355339" />
    <circle
       style="opacity:0.906;fill:none;fill-opacity:1;fill-rule:evenodd;stroke:#000000;stroke-width:5;stroke-linejoin:round;stroke-miterlimit:4;stroke-dasharray:none;stroke-opacity:1"
       id="path4193-3"
       cx="172.73608"
       cy="368.48892"
       r="3.5355339" />
    <circle
       style="opacity:0.906;fill:none;fill-opacity:1;fill-rule:evenodd;stroke:#000000;stroke-width:5;stroke-linejoin:round;stroke-miterlimit:4;stroke-dasharray:none;stroke-opacity:1"
       id="path4193-35"
       cx="235.36554"
       cy="368.48892"
       r="3.5355339" />
  </g>
</svg>
