<?xml version="1.0" encoding="UTF-8" standalone="no"?>
<!-- Created with Inkscape (http://www.inkscape.org/) -->

<svg
   xmlns:dc="http://purl.org/dc/elements/1.1/"
   xmlns:cc="http://creativecommons.org/ns#"
   xmlns:rdf="http://www.w3.org/1999/02/22-rdf-syntax-ns#"
   xmlns:svg="http://www.w3.org/2000/svg"
   xmlns="http://www.w3.org/2000/svg"
   xmlns:sodipodi="http://sodipodi.sourceforge.net/DTD/sodipodi-0.dtd"
   xmlns:inkscape="http://www.inkscape.org/namespaces/inkscape"
   width="143.57971mm"
   height="38.124245mm"
   viewBox="0 0 508.74701 135.08591"
   id="svg4231"
   version="1.1"
   inkscape:version="0.91 r13725"
   sodipodi:docname="line-c.svg">
  <defs
     id="defs4233" />
  <sodipodi:namedview
     id="base"
     pagecolor="#ffffff"
     bordercolor="#666666"
     borderopacity="1.0"
     inkscape:pageopacity="0.0"
     inkscape:pageshadow="2"
     inkscape:zoom="1.4"
     inkscape:cx="261.91995"
     inkscape:cy="35.548611"
     inkscape:document-units="px"
     inkscape:current-layer="layer1"
     showgrid="false"
     fit-margin-top="0"
     fit-margin-left="0"
     fit-margin-right="0"
     fit-margin-bottom="0"
     inkscape:window-width="1600"
     inkscape:window-height="837"
     inkscape:window-x="1358"
     inkscape:window-y="-8"
     inkscape:window-maximized="1" />
  <metadata
     id="metadata4236">
    <rdf:RDF>
      <cc:Work
         rdf:about="">
        <dc:format>image/svg+xml</dc:format>
        <dc:type
           rdf:resource="http://purl.org/dc/dcmitype/StillImage" />
        <dc:title></dc:title>
      </cc:Work>
    </rdf:RDF>
  </metadata>
  <g
     inkscape:label="Capa 1"
     inkscape:groupmode="layer"
     id="layer1"
     transform="translate(-71.252993,-89.487282)">
    <path
       style="fill:#000000"
       d="m 166.53764,147.72427 c -0.13824,-0.13824 -0.25133,-3.48865 -0.25133,-7.44535 l 0,-7.19399 -17.24071,0 c -14.99046,0 -17.26796,-0.071 -17.4495,-0.54409 -0.27501,-0.71673 -5.57207,-0.80294 -5.57189,-0.0907 1.1e-4,0.35183 -1.88917,0.43697 -8.43328,0.38006 -7.57755,-0.0659 -8.4463,-0.13532 -8.5602,-0.68404 -0.11384,-0.54845 -0.56616,-0.58499 -4.43783,-0.35853 l -4.31106,0.25216 -1.423967,-1.14433 -1.42396,-1.14432 -9.30384,0.7658 c -5.11711,0.4212 -9.52739,0.64071 -9.8006,0.48781 -0.27322,-0.1529 -1.9772,-1.72669 -3.78662,-3.4973 l -3.28986,-3.2193 0,-3.33334 0,-3.33333 3.39701,-3.33133 c 3.07358,-3.01415 3.80455,-3.48346 5.30833,-3.40815 1.81067,0.0907 15.68501,1.22457 16.38247,1.33887 0.68523,0.11229 1.35992,-0.15403 2.31689,-0.91453 1.33786,-1.0632 1.392547,-1.07296 6.015647,-1.07296 3.53897,0 4.64362,-0.10948 4.57484,-0.4534 -0.11718,-0.58589 15.97307,-0.85727 16.55118,-0.27915 0.55772,0.55773 6.0283,0.48189 6.02823,-0.0836 -7e-5,-0.35633 3.66945,-0.4534 17.13864,-0.4534 l 17.13872,0 0,-7.36131 c 0,-7.059769 0.0297,-7.368639 0.72544,-7.540449 0.399,-0.0985 2.84737,-0.13206 5.44084,-0.0745 l 4.71539,0.10464 0.10726,2.44838 0.10726,2.44837 2.34112,0 c 1.77277,0 2.34112,-0.12415 2.34112,-0.51144 0,-0.56606 2.21409,-4.56831 2.5248,-4.56388 0.10758,0.001 0.58812,0.68984 1.06785,1.52956 l 0.87221,1.52675 0.74082,-1.52955 c 0.40745,-0.84125 0.8553,-1.52955 0.99524,-1.52955 0.13994,0 0.65464,0.67772 1.14385,1.50606 l 0.88939,1.50606 0.84649,-1.50606 c 0.46551,-0.82834 0.9388,-1.5048 1.05167,-1.50327 0.11288,0.001 0.59291,0.68141 1.0667,1.51083 l 0.86147,1.50802 0.81815,-1.35561 c 0.44996,-0.74559 0.94613,-1.36007 1.10257,-1.36552 0.15644,-0.005 0.65014,0.59605 1.09709,1.33665 l 0.81268,1.34653 0.85051,-1.48905 c 0.46781,-0.81898 0.96963,-1.49031 1.11523,-1.49185 0.14556,-0.001 0.61431,0.68258 1.04167,1.52026 l 0.77698,1.52304 0.89945,-1.52304 c 0.49471,-0.83768 1.00532,-1.5207 1.13467,-1.51782 0.12938,0.003 0.68409,0.81908 1.23271,1.8138 0.77554,1.40619 0.99749,2.2915 0.99749,3.97916 l 0,2.170579 10.42827,0.0962 10.42827,0.0962 0,4.16774 0,4.16775 -1.08817,0.18849 c -0.63795,0.1105 -1.08816,0.41213 -1.08816,0.729 0,0.46284 1.56388,0.56659 10.88167,0.72189 9.70639,0.16177 11.01879,0.25439 12.15121,0.85753 3.32747,1.77227 4.87401,4.31801 4.87775,8.02917 0.004,3.91915 -1.70832,6.63028 -5.24047,8.29758 -1.52703,0.72082 -2.31758,0.77819 -12.26293,0.89008 -9.67802,0.10888 -10.62026,0.17364 -10.51453,0.72265 0.0665,0.34518 0.57956,0.6825 1.19989,0.78884 0.95012,0.16288 1.0976,0.35327 1.19629,1.54436 l 0.11259,1.35859 25.36867,0 25.36871,0 0,-11.96985 c 0,-6.58341 0.0941,-11.96984 0.20911,-11.96984 0.11502,0 1.56562,0.58274 3.22355,1.29498 l 3.01444,1.29498 3.1241,-1.29323 3.12409,-1.29322 3.13327,1.29702 3.13327,1.29702 2.76097,-1.1613 c 1.51854,-0.63872 2.96501,-1.24063 3.21438,-1.33759 0.35837,-0.13934 0.4534,3.06495 0.4534,15.29087 l 0,15.46714 -47.97006,-0.12767 c -26.38353,-0.0702 -48.29651,-0.19832 -48.6955,-0.28467 -0.64688,-0.14 -0.72864,0.0394 -0.75475,1.65661 -0.0272,1.67535 -0.10146,1.82221 -0.97591,1.92631 -0.67887,0.0808 -1.21356,0.56816 -1.89029,1.72293 -0.51902,0.88563 -1.06289,1.61024 -1.20863,1.61024 -0.14571,0 -0.57259,-0.57129 -0.94863,-1.26953 -0.37603,-0.69824 -0.79548,-1.26953 -0.93216,-1.26953 -0.13667,0 -0.55616,0.57129 -0.93216,1.26953 -0.37603,0.69824 -0.7965,1.26953 -0.93437,1.26953 -0.13784,0 -0.60372,-0.57129 -1.03525,-1.26953 -0.43153,-0.69824 -0.83959,-1.26953 -0.90681,-1.26953 -0.0672,0 -0.47527,0.57129 -0.9068,1.26953 -0.43153,0.69824 -0.89741,1.26953 -1.03528,1.26953 -0.13784,0 -0.55831,-0.57129 -0.93434,-1.26953 -0.37604,-0.69824 -0.79549,-1.26953 -0.93216,-1.26953 -0.13668,0 -0.55616,0.57129 -0.93216,1.26953 -0.37604,0.69824 -0.79651,1.26953 -0.93438,1.26953 -0.13783,0 -0.60433,-0.5723 -1.03666,-1.27179 -0.86785,-1.40421 -1.18962,-1.37106 -2.00545,0.20662 -0.71025,1.37348 -0.99448,1.3417 -1.82707,-0.20436 -0.37604,-0.69824 -0.7841,-1.26953 -0.90681,-1.26953 -0.12275,0 -0.53135,0.57233 -0.90808,1.27185 -0.37672,0.69951 -0.85127,1.21698 -1.05461,1.14994 -0.20331,-0.0671 -0.41793,-1.21067 -0.47691,-2.54138 l -0.10726,-2.41947 -2.32454,0 -2.32454,0 -0.10726,2.44838 -0.10726,2.44838 -5.09883,0.10021 c -2.80431,0.0551 -5.21188,-0.0129 -5.35015,-0.15113 z m 9.54218,-26.60919 0,-26.116019 -4.53404,0 -4.53403,0 0,25.874199 c 0,14.23082 0.10882,25.98303 0.24183,26.11603 0.13297,0.133 2.17329,0.24181 4.53403,0.24181 l 4.29221,0 0,-26.11602 z m 10.72585,0.48018 c 1.01025,-27.885959 0.97964,-25.638809 0.33015,-24.238509 -0.70771,1.52576 -2.50362,46.239999 -1.90959,47.543779 0.22122,0.48551 0.47248,0.8125 0.55834,0.72663 0.0859,-0.0859 0.54535,-10.90022 1.0211,-24.0319 z m 3.92125,-2.29379 c 0.45267,-12.46859 0.78322,-22.724949 0.73454,-22.791909 -0.0487,-0.067 -0.27432,0.22544 -0.50142,0.64977 -0.26381,0.49289 -0.75944,9.071659 -1.37255,23.755629 -0.84615,20.26668 -0.89733,23.10605 -0.43305,24.01537 l 0.52656,1.03125 0.11143,-1.99498 c 0.0613,-1.09723 0.48181,-12.19654 0.93449,-24.66513 z m 7.63505,0.54408 c 0.47636,-12.76783 0.81257,-23.269029 0.7471,-23.335989 -0.69305,-0.70917 -1.0367,3.758749 -1.88061,24.450149 -0.80513,19.74129 -0.86814,23.17633 -0.44056,24.0188 l 0.49893,0.98307 0.1045,-1.45089 c 0.0575,-0.79799 0.49428,-11.8973 0.97064,-24.66514 z m 1.86566,1.16176 c 0.85922,-20.92746 0.89415,-23.120549 0.38315,-24.063709 l -0.56222,-1.03774 -0.0171,1.08817 c -0.009,0.59849 -0.42283,11.779419 -0.91896,24.846499 -0.49613,13.06708 -0.89661,23.83994 -0.88994,23.93968 0.007,0.0998 0.24781,-0.2525 0.53585,-0.78278 0.40901,-0.75303 0.73067,-6.00622 1.46903,-23.99012 z m -16.16792,22.1588 c 0,-0.56351 0.41104,-10.98389 0.91341,-23.15641 0.6743,-16.33841 0.80905,-22.326869 0.5147,-22.876869 -0.2193,-0.40976 -0.47429,-0.66943 -0.56668,-0.57706 -0.1387,0.13871 -1.94804,45.226739 -1.93164,48.136279 0.005,0.87538 0.0236,0.8824 0.53766,0.20271 0.2929,-0.38725 0.53255,-1.16514 0.53255,-1.72865 z m 7.61496,0.0964 c 0,-0.51049 0.42174,-10.85597 0.93989,-22.98995 0.75852,-17.76379 0.85544,-22.270909 0.49747,-23.135199 -0.24454,-0.59037 -0.50425,-1.01379 -0.57709,-0.94093 -0.0729,0.0729 -0.45228,9.177889 -0.84318,20.233409 -0.39087,11.05552 -0.80274,22.14126 -0.91526,24.63498 -0.18521,4.10519 -0.15231,4.46744 0.34792,3.82994 0.30386,-0.38725 0.55145,-1.12176 0.55025,-1.63225 z m 2.91375,-23.17246 c 0.42983,-12.83286 0.69639,-23.417579 0.59237,-23.521599 -0.61656,-0.61658 -1.02763,4.994039 -1.83592,25.059289 -0.68628,17.03675 -0.80481,22.64006 -0.49099,23.21424 0.39642,0.72532 0.4249,0.71151 0.68334,-0.33129 0.14835,-0.5985 0.62138,-11.58778 1.0512,-24.42064 z m 1.78699,1.1145 c 0.8483,-21.07112 0.8577,-24.754599 0.0631,-24.754599 -0.2019,0 -1.95218,45.547089 -1.86084,48.423459 0.0228,0.72544 0.0228,0.72544 0.44854,0 0.28423,-0.48459 0.73219,-8.3429 1.34918,-23.66886 z m 5.84314,-0.68075 c 0.4357,-12.5943 0.70988,-23.122319 0.60933,-23.395609 -0.58601,-1.59243 -0.97427,3.615779 -1.78829,23.986889 -0.61598,15.4153 -0.79143,22.96036 -0.54822,23.57697 l 0.35761,0.9068 0.28873,-1.08816 c 0.15876,-0.5985 0.64513,-11.3926 1.08084,-23.98689 z m 1.80106,-0.0168 c 0.52457,-15.38821 0.66277,-23.127099 0.42076,-23.559559 -0.28456,-0.50849 -0.40324,-0.22785 -0.564,1.33356 -0.21549,2.093339 -1.71328,43.393869 -1.66341,45.866989 l 0.0294,1.45089 0.49813,-1.08816 c 0.37592,-0.82118 0.68979,-6.71076 1.27928,-24.00372 z m -15.29532,0.79041 c 0.86618,-20.65009 0.91192,-23.230409 0.4299,-24.250249 l -0.53944,-1.14127 -0.0991,1.63225 c -0.20755,3.417289 -1.55484,42.384019 -1.55448,44.959469 2.5e-4,1.95602 0.1099,2.59271 0.39711,2.30553 0.25735,-0.25735 0.73734,-8.51656 1.36605,-23.50573 z m 16.01061,14.44751 c 0,-4.52194 -0.0591,-8.1537 -0.13134,-8.07058 -0.34891,0.40152 -0.58275,16.29229 -0.23976,16.29229 0.24204,0 0.3711,-2.85887 0.3711,-8.22171 z m -22.85152,-14.81117 0,-21.219269 -2.3577,0 -2.3577,0 0,21.219269 0,21.21927 2.3577,0 2.3577,0 0,-21.21927 z m 120.42388,5.07325 0,-14.33241 -1.17884,0.49672 c -0.64837,0.2732 -3.35428,1.42757 -6.01311,2.56528 l -4.83429,2.06855 -4.6031,-1.99969 c -2.53169,-1.09983 -5.17735,-2.23964 -5.87929,-2.53292 l -1.27621,-0.53323 0.0131,11.67031 0.0134,11.67032 -36.45362,0.18136 -36.45361,0.18136 0,2.17278 c 0,2.12066 0.0261,2.17835 1.08817,2.40546 0.59849,0.12797 22.34824,0.252 48.33278,0.2756 l 47.24461,0.0429 0,-14.33241 z m -76.53445,7.44068 c 0,-1.03352 -0.0774,-1.08973 -1.54158,-1.11917 -0.84786,-0.017 -4.47962,-0.22108 -8.07057,-0.4534 l -6.52901,-0.42241 -0.0963,-10.42827 -0.0962,-10.42827 0.82167,0.001 c 1.37943,0.002 12.32829,-0.73553 13.9704,-0.94092 l 1.54158,-0.19282 0,-3.24227 0,-3.24228 -10.15624,0 -10.15623,0 0,15.53661 c 0,8.54514 0.10882,15.64544 0.24183,15.77843 0.13297,0.133 4.70328,0.24182 10.15623,0.24182 l 9.91441,0 0,-1.08817 z m -100.83687,-12.51393 0,-11.06304 -7.43582,0 -7.43581,0 0,11.06304 0,11.06304 7.43581,0 7.43582,0 0,-11.06304 z m 41.35037,0 0,-11.06304 -16.8666,0 -16.8666,0 0,11.06304 0,11.06304 16.8666,0 16.8666,0 0,-11.06304 z m -63.11373,0 0,-9.97487 -1.26953,0 -1.26953,0 0,9.97487 0,9.97487 1.26953,0 1.26953,0 0,-9.97487 z m 110.72795,9.73695 c -0.24556,-0.0994 -0.73523,-0.10541 -1.08816,-0.0134 -0.35293,0.092 -0.15198,0.17326 0.44651,0.18066 0.59849,0.007 0.88722,-0.0679 0.64165,-0.16722 z m 8.9705,-0.1248 c 0,-0.2181 -1.26543,-0.3422 -3.17383,-0.31125 -2.49549,0.0405 -2.86373,0.10699 -1.72293,0.31125 2.24609,0.40216 4.89676,0.40216 4.89676,0 z M 99.735173,111.7532 c -0.10195,-0.10195 -0.51282,0.11097 -0.91304,0.47317 -0.68722,0.62192 -0.72767,1.11089 -0.72767,8.7961 0,8.00128 0.0137,8.14866 0.81613,8.79871 l 0.81612,0.66112 0.0969,-9.27186 c 0.0533,-5.09953 0.0135,-9.35528 -0.0885,-9.45724 z m -20.50228,9.15029 c 0,-5.81111 -0.13099,-9.23446 -0.35043,-9.15874 -0.19274,0.0665 -1.74338,1.39685 -3.44587,2.95634 l -3.09543,2.83544 0,3.32327 0,3.32327 2.98445,3.00004 c 1.64145,1.65002 3.19209,3.00003 3.44587,3.00003 0.36137,0 0.46141,-2.01184 0.46141,-9.27965 z m 11.06304,8.61795 6.89173,-0.60782 0.0978,-7.88922 c 0.0538,-4.33907 -0.0279,-7.89329 -0.18136,-7.89826 -0.15351,-0.005 -3.95139,-0.31602 -8.43972,-0.69121 -4.48833,-0.3752 -8.28331,-0.60633 -8.4333,-0.51364 -0.14998,0.0927 -0.2727,4.23954 -0.2727,9.2152 l 0,9.04665 1.72294,-0.0269 c 0.94761,-0.0148 4.82421,-0.30046 8.61466,-0.63476 z m 123.688387,-0.0721 c 1.19699,-0.18689 8.33986,-0.34307 15.87307,-0.34708 13.15928,-0.007 13.76046,-0.0373 15.32075,-0.77068 1.55252,-0.72977 3.80891,-2.86353 3.80891,-3.60191 0,-0.19255 0.16322,-0.3501 0.36272,-0.3501 0.74906,0 0.31746,1.1374 -0.99749,2.6287 -1.2939,1.46739 -0.91377,1.36499 0.9421,-0.25379 3.39436,-2.96075 3.04586,-9.32688 -0.66367,-12.12309 l -1.26311,-0.95213 1.17243,1.44285 c 1.08004,1.32912 1.55017,2.74684 0.90042,2.71521 -0.14962,-0.007 -0.72573,-0.72957 -1.28026,-1.60508 -0.67405,-1.06424 -1.57571,-1.87135 -2.72042,-2.43513 -1.69145,-0.83308 -1.90114,-0.84554 -17.30927,-1.02819 -11.26591,-0.13355 -15.88061,-0.30982 -16.61817,-0.63476 -0.5616,-0.24743 -1.09208,-0.44988 -1.17885,-0.44988 -0.0868,0 -0.15774,4.18128 -0.15774,9.29173 l 0,9.29173 0.81612,-0.23931 c 0.44887,-0.13162 1.79548,-0.39222 2.99246,-0.57909 z m 26.06416,-5.04739 c -2.31359,-0.99115 -2.62572,-4.83527 -0.52367,-6.44917 0.31884,-0.24477 1.68006,-0.44701 3.05181,-0.4534 2.26077,-0.0105 2.56854,0.0807 3.53654,1.04873 1.38292,1.38291 1.4691,3.50211 0.20233,4.97481 -0.74369,0.86459 -1.16634,1.0117 -3.17382,1.10472 -1.27374,0.059 -2.66569,-0.0425 -3.09319,-0.22569 z m 0.26261,-1.78108 c -0.56882,-1.06286 -0.48097,-2.66842 0.19917,-3.63945 0.57281,-0.81778 0.56737,-0.83138 -0.17306,-0.43512 -1.61705,0.86542 -2.00683,3.1565 -0.75072,4.41261 0.88881,0.88882 1.28284,0.70501 0.72461,-0.33804 z m 3.59987,0.0415 c 1.2498,-1.58887 0.45805,-4.08636 -1.29542,-4.08636 -0.95552,0 -1.97111,1.23114 -1.97111,2.38949 0,0.93099 1.30417,2.68863 1.99497,2.68863 0.27027,0 0.84246,-0.4463 1.27156,-0.99176 z m 1.79744,0.19792 c 1.21291,-1.30191 0.8401,-3.454 -0.74536,-4.30251 -0.72396,-0.38745 -0.72737,-0.37386 -0.13308,0.53314 0.60176,0.91837 0.60266,2.54472 0.004,3.92844 -0.37452,0.86313 -0.0152,0.79792 0.87622,-0.15907 z M 183.78136,99.773661 c 0.11201,-2.8462 0.058,-3.28374 -0.33828,-2.74177 -0.36279,0.49616 -0.45884,2.90822 -0.41644,10.459729 l 0.0551,9.81486 0.28318,-7.07309 c 0.15571,-3.8902 0.34313,-8.59708 0.41644,-10.459729 z m 109.63129,14.849159 2.16847,-0.99584 -2.62187,-1.02866 -2.62183,-1.02865 -2.62187,1.02865 -2.62186,1.02866 2.16846,0.99584 c 1.19267,0.54772 2.57653,0.99585 3.07527,0.99585 0.49874,0 1.8826,-0.44813 3.07523,-0.99585 z m -70.99285,-3.1199 c -0.10505,-0.41023 -3.76212,-0.27562 -5.27957,0.19433 -0.66408,0.20566 0.0434,0.28163 2.19643,0.23588 1.90512,-0.0405 3.13885,-0.21263 3.08314,-0.43021 z"
       id="path4214"
       inkscape:connector-curvature="0" />
    <text
       xml:space="preserve"
       style="font-style:normal;font-weight:normal;font-size:13.75px;line-height:125%;font-family:sans-serif;letter-spacing:0px;word-spacing:0px;fill:#000000;fill-opacity:1;stroke:none;stroke-width:1px;stroke-linecap:butt;stroke-linejoin:miter;stroke-opacity:1"
       x="133.39586"
       y="99.69236"
       id="text5386"
       sodipodi:linespacing="125%"><tspan
         sodipodi:role="line"
         id="tspan5388"
         x="133.39586"
         y="99.69236">GND</tspan></text>
    <text
       xml:space="preserve"
       style="font-style:normal;font-weight:normal;font-size:13.75px;line-height:125%;font-family:sans-serif;letter-spacing:0px;word-spacing:0px;fill:#000000;fill-opacity:1;stroke:none;stroke-width:1px;stroke-linecap:butt;stroke-linejoin:miter;stroke-opacity:1"
       x="113.36274"
       y="99.591141"
       id="text5386-4"
       sodipodi:linespacing="125%"><tspan
         sodipodi:role="line"
         x="113.36274"
         y="99.591141"
         id="tspan4168">R</tspan></text>
    <text
       xml:space="preserve"
       style="font-style:normal;font-weight:normal;font-size:13.75px;line-height:125%;font-family:sans-serif;letter-spacing:0px;word-spacing:0px;fill:#000000;fill-opacity:1;stroke:none;stroke-width:1px;stroke-linecap:butt;stroke-linejoin:miter;stroke-opacity:1"
       x="84.077026"
       y="99.591141"
       id="text5386-8"
       sodipodi:linespacing="125%"><tspan
         sodipodi:role="line"
         id="tspan5388-0"
         x="84.077026"
         y="99.591141">L</tspan></text>
    <path
       style="fill:#000000"
       d="m 484.71537,147.87409 c 0.13824,-0.13824 0.25133,-3.48865 0.25133,-7.44535 l 0,-7.19399 17.24071,0 c 14.99046,0 17.26796,-0.071 17.4495,-0.54409 0.27501,-0.71673 5.57207,-0.80294 5.57189,-0.0907 -1.1e-4,0.35183 1.88917,0.43697 8.43328,0.38006 7.57756,-0.0659 8.44631,-0.13532 8.56021,-0.68404 0.11384,-0.54845 0.56616,-0.58499 4.43783,-0.35853 l 4.31106,0.25216 1.42397,-1.14433 1.42396,-1.14432 9.30384,0.7658 c 5.11711,0.4212 9.52739,0.64071 9.8006,0.48781 0.27322,-0.1529 1.9772,-1.72669 3.78662,-3.4973 l 3.28986,-3.2193 0,-3.33334 0,-3.33333 -3.39701,-3.33133 c -3.07358,-3.01415 -3.80455,-3.48346 -5.30833,-3.40815 -1.81067,0.0907 -15.68501,1.22457 -16.38247,1.33887 -0.68523,0.11229 -1.35992,-0.15403 -2.31689,-0.91453 -1.33786,-1.0632 -1.39255,-1.07296 -6.01565,-1.07296 -3.53897,0 -4.64362,-0.10948 -4.57484,-0.4534 0.11718,-0.58589 -15.97308,-0.85727 -16.55119,-0.27915 -0.55772,0.55773 -6.0283,0.48189 -6.02823,-0.0836 7e-5,-0.35633 -3.66945,-0.4534 -17.13864,-0.4534 l -17.13872,0 0,-7.36131 c 0,-7.059772 -0.0297,-7.368642 -0.72544,-7.540452 -0.399,-0.0985 -2.84737,-0.13206 -5.44084,-0.0745 l -4.7154,0.10464 -0.10726,2.44838 -0.10726,2.44837 -2.34112,0 c -1.77277,0 -2.34112,-0.12415 -2.34112,-0.51144 0,-0.56606 -2.21409,-4.56831 -2.5248,-4.56388 -0.10758,0.001 -0.58812,0.68984 -1.06785,1.52956 l -0.87221,1.52675 -0.74082,-1.52955 c -0.40745,-0.84125 -0.8553,-1.52955 -0.99524,-1.52955 -0.13994,0 -0.65464,0.67772 -1.14385,1.50606 l -0.88939,1.50606 -0.84649,-1.50606 c -0.46551,-0.82834 -0.9388,-1.5048 -1.05167,-1.50327 -0.11288,0.001 -0.59291,0.68141 -1.0667,1.51083 l -0.86147,1.50802 -0.81815,-1.35561 c -0.44996,-0.74559 -0.94613,-1.36007 -1.10257,-1.36552 -0.15644,-0.005 -0.65014,0.59605 -1.09709,1.33665 l -0.81268,1.34653 -0.85051,-1.48905 c -0.46781,-0.81898 -0.96963,-1.49031 -1.11523,-1.49185 -0.14556,-10e-4 -0.61431,0.68258 -1.04167,1.52026 l -0.77698,1.52304 -0.89945,-1.52304 c -0.49471,-0.83768 -1.00532,-1.5207 -1.13467,-1.51782 -0.12938,0.003 -0.68409,0.81908 -1.23271,1.8138 -0.77554,1.40619 -0.99749,2.2915 -0.99749,3.97916 l 0,2.170582 -10.42827,0.0962 -10.42827,0.0962 0,4.16774 0,4.16775 1.08817,0.18849 c 0.63795,0.1105 1.08816,0.41213 1.08816,0.729 0,0.46284 -1.56388,0.56659 -10.88167,0.72189 -9.70639,0.16177 -11.01879,0.25439 -12.15121,0.85753 -3.32747,1.77227 -4.87401,4.31801 -4.87775,8.02917 -0.004,3.91915 1.70832,6.63028 5.24047,8.29758 1.52703,0.72082 2.31758,0.77819 12.26293,0.89008 9.67802,0.10888 10.62026,0.17364 10.51453,0.72265 -0.0665,0.34518 -0.57956,0.6825 -1.19989,0.78884 -0.95012,0.16288 -1.0976,0.35327 -1.19629,1.54436 l -0.11259,1.35859 -25.36867,0 -25.36872,0 0,-11.96985 c 0,-6.58341 -0.0941,-11.96984 -0.20911,-11.96984 -0.11502,0 -1.56562,0.58274 -3.22355,1.29498 l -3.01444,1.29498 -3.1241,-1.29323 -3.12409,-1.29322 -3.13327,1.29702 -3.13327,1.29702 -2.76097,-1.1613 c -1.51854,-0.63872 -2.96501,-1.24063 -3.21438,-1.33759 -0.35837,-0.13934 -0.4534,3.06495 -0.4534,15.29087 l 0,15.46714 47.97007,-0.12767 c 26.38353,-0.0702 48.29651,-0.19832 48.6955,-0.28467 0.64688,-0.14 0.72864,0.0394 0.75475,1.65661 0.0272,1.67535 0.10146,1.82221 0.97591,1.92631 0.67887,0.0808 1.21356,0.56816 1.89029,1.72293 0.51902,0.88563 1.06289,1.61024 1.20863,1.61024 0.14571,0 0.57259,-0.57129 0.94863,-1.26953 0.37603,-0.69824 0.79548,-1.26953 0.93216,-1.26953 0.13667,0 0.55616,0.57129 0.93216,1.26953 0.37603,0.69824 0.7965,1.26953 0.93437,1.26953 0.13784,0 0.60372,-0.57129 1.03525,-1.26953 0.43153,-0.69824 0.83959,-1.26953 0.90681,-1.26953 0.0672,0 0.47527,0.57129 0.9068,1.26953 0.43153,0.69824 0.89741,1.26953 1.03528,1.26953 0.13784,0 0.55831,-0.57129 0.93434,-1.26953 0.37604,-0.69824 0.79549,-1.26953 0.93216,-1.26953 0.13668,0 0.55616,0.57129 0.93216,1.26953 0.37604,0.69824 0.79651,1.26953 0.93438,1.26953 0.13783,0 0.60433,-0.5723 1.03666,-1.27179 0.86785,-1.40421 1.18962,-1.37106 2.00545,0.20662 0.71025,1.37348 0.99448,1.3417 1.82707,-0.20436 0.37604,-0.69824 0.7841,-1.26953 0.90681,-1.26953 0.12275,0 0.53135,0.57233 0.90808,1.27185 0.37672,0.69951 0.85127,1.21698 1.05461,1.14994 0.20331,-0.0671 0.41793,-1.21067 0.47691,-2.54138 l 0.10726,-2.41947 2.32454,0 2.32454,0 0.10726,2.44838 0.10726,2.44838 5.09884,0.10021 c 2.80431,0.0551 5.21188,-0.0129 5.35015,-0.15113 z m -9.54218,-26.60919 0,-26.116022 4.53404,0 4.53403,0 0,25.874202 c 0,14.23082 -0.10882,25.98303 -0.24183,26.11603 -0.13297,0.133 -2.17329,0.24181 -4.53403,0.24181 l -4.29221,0 0,-26.11602 z m -10.72586,0.48018 c -1.01025,-27.885962 -0.97964,-25.638812 -0.33015,-24.238512 0.70771,1.52576 2.50362,46.240002 1.90959,47.543782 -0.22122,0.48551 -0.47248,0.8125 -0.55834,0.72663 -0.0859,-0.0859 -0.54535,-10.90022 -1.0211,-24.0319 z m -3.92125,-2.29379 c -0.45267,-12.46859 -0.78322,-22.724952 -0.73454,-22.791912 0.0487,-0.067 0.27432,0.22544 0.50142,0.64977 0.26381,0.49289 0.75944,9.071662 1.37255,23.755632 0.84615,20.26668 0.89733,23.10605 0.43305,24.01537 l -0.52656,1.03125 -0.11143,-1.99498 c -0.0613,-1.09723 -0.48181,-12.19654 -0.93449,-24.66513 z m -7.63505,0.54408 c -0.47636,-12.76783 -0.81257,-23.269032 -0.7471,-23.335992 0.69305,-0.70917 1.0367,3.758752 1.88061,24.450152 0.80513,19.74129 0.86814,23.17633 0.44056,24.0188 l -0.49893,0.98307 -0.1045,-1.45089 c -0.0575,-0.79799 -0.49428,-11.8973 -0.97064,-24.66514 z m -1.86566,1.16176 c -0.85922,-20.92746 -0.89415,-23.120552 -0.38315,-24.063712 l 0.56222,-1.03774 0.0171,1.08817 c 0.009,0.59849 0.42283,11.779422 0.91896,24.846502 0.49613,13.06708 0.89661,23.83994 0.88994,23.93968 -0.007,0.0998 -0.24781,-0.2525 -0.53585,-0.78278 -0.40901,-0.75303 -0.73067,-6.00622 -1.46903,-23.99012 z m 16.16792,22.1588 c 0,-0.56351 -0.41104,-10.98389 -0.91341,-23.15641 -0.6743,-16.33841 -0.80905,-22.326872 -0.5147,-22.876872 0.2193,-0.40976 0.47429,-0.66943 0.56668,-0.57706 0.1387,0.13871 1.94804,45.226742 1.93164,48.136282 -0.005,0.87538 -0.0236,0.8824 -0.53766,0.20271 -0.2929,-0.38725 -0.53255,-1.16514 -0.53255,-1.72865 z m -7.61496,0.0964 c 0,-0.51049 -0.42174,-10.85597 -0.93989,-22.98995 -0.75852,-17.76379 -0.85544,-22.270912 -0.49747,-23.135202 0.24454,-0.59037 0.50425,-1.01379 0.57709,-0.94093 0.0729,0.0729 0.45228,9.177892 0.84318,20.233412 0.39087,11.05552 0.80274,22.14126 0.91526,24.63498 0.18521,4.10519 0.15231,4.46744 -0.34792,3.82994 -0.30386,-0.38725 -0.55145,-1.12176 -0.55025,-1.63225 z m -2.91375,-23.17246 c -0.42983,-12.83286 -0.69639,-23.417582 -0.59237,-23.521602 0.61656,-0.61658 1.02763,4.994042 1.83592,25.059292 0.68628,17.03675 0.80481,22.64006 0.49099,23.21424 -0.39642,0.72532 -0.4249,0.71151 -0.68334,-0.33129 -0.14835,-0.5985 -0.62138,-11.58778 -1.0512,-24.42064 z m -1.78699,1.1145 c -0.8483,-21.07112 -0.8577,-24.754602 -0.0631,-24.754602 0.2019,0 1.95218,45.547092 1.86084,48.423462 -0.0228,0.72544 -0.0228,0.72544 -0.44854,0 -0.28423,-0.48459 -0.73219,-8.3429 -1.34918,-23.66886 z m -5.84314,-0.68075 c -0.4357,-12.5943 -0.70988,-23.122322 -0.60933,-23.395612 0.58601,-1.59243 0.97427,3.615782 1.78829,23.986892 0.61598,15.4153 0.79143,22.96036 0.54822,23.57697 l -0.35761,0.9068 -0.28873,-1.08816 c -0.15876,-0.5985 -0.64513,-11.3926 -1.08084,-23.98689 z m -1.80106,-0.0168 c -0.52457,-15.38821 -0.66277,-23.127102 -0.42076,-23.559562 0.28456,-0.50849 0.40324,-0.22785 0.564,1.33356 0.21549,2.093342 1.71328,43.393872 1.66341,45.866992 l -0.0294,1.45089 -0.49813,-1.08816 c -0.37592,-0.82118 -0.68979,-6.71076 -1.27928,-24.00372 z m 15.29532,0.79041 c -0.86618,-20.65009 -0.91192,-23.230412 -0.4299,-24.250252 l 0.53944,-1.14127 0.0991,1.63225 c 0.20755,3.417292 1.55484,42.384022 1.55448,44.959472 -2.5e-4,1.95602 -0.1099,2.59271 -0.39711,2.30553 -0.25735,-0.25735 -0.73734,-8.51656 -1.36605,-23.50573 z m -16.01061,14.44751 c 0,-4.52194 0.0591,-8.1537 0.13134,-8.07058 0.34891,0.40152 0.58275,16.29229 0.23976,16.29229 -0.24204,0 -0.3711,-2.85887 -0.3711,-8.22171 z m 22.85152,-14.81117 0,-21.219272 2.3577,0 2.3577,0 0,21.219272 0,21.21927 -2.3577,0 -2.3577,0 0,-21.21927 z m -120.42389,5.07325 0,-14.33241 1.17884,0.49672 c 0.64837,0.2732 3.35428,1.42757 6.01311,2.56528 l 4.83429,2.06855 4.6031,-1.99969 c 2.53169,-1.09983 5.17735,-2.23964 5.87929,-2.53292 l 1.27621,-0.53323 -0.0131,11.67031 -0.0134,11.67032 36.45363,0.18136 36.45361,0.18136 0,2.17278 c 0,2.12066 -0.0261,2.17835 -1.08817,2.40546 -0.59849,0.12797 -22.34824,0.252 -48.33278,0.2756 l -47.24462,0.0429 0,-14.33241 z m 76.53446,7.44068 c 0,-1.03352 0.0774,-1.08973 1.54158,-1.11917 0.84786,-0.017 4.47962,-0.22108 8.07057,-0.4534 l 6.52901,-0.42241 0.0963,-10.42827 0.0962,-10.42827 -0.82167,10e-4 c -1.37943,0.002 -12.32829,-0.73553 -13.9704,-0.94092 l -1.54158,-0.19282 0,-3.24227 0,-3.24228 10.15624,0 10.15623,0 0,15.53661 c 0,8.54514 -0.10882,15.64544 -0.24183,15.77843 -0.13297,0.133 -4.70328,0.24182 -10.15623,0.24182 l -9.91441,0 0,-1.08817 z m 100.83688,-12.51393 0,-11.06304 7.43583,0 7.43581,0 0,11.06304 0,11.06304 -7.43581,0 -7.43583,0 0,-11.06304 z m -41.35037,0 0,-11.06304 16.8666,0 16.8666,0 0,11.06304 0,11.06304 -16.8666,0 -16.8666,0 0,-11.06304 z m 63.11374,0 0,-9.97487 1.26953,0 1.26953,0 0,9.97487 0,9.97487 -1.26953,0 -1.26953,0 0,-9.97487 z m -110.72797,9.73695 c 0.24556,-0.0994 0.73523,-0.10541 1.08816,-0.0134 0.35293,0.092 0.15198,0.17326 -0.44651,0.18066 -0.59849,0.007 -0.88722,-0.0679 -0.64165,-0.16722 z m -8.9705,-0.1248 c 0,-0.2181 1.26543,-0.3422 3.17383,-0.31125 2.49549,0.0405 2.86373,0.10699 1.72293,0.31125 -2.24609,0.40216 -4.89676,0.40216 -4.89676,0 z m 123.13588,-18.7927 c 0.10195,-0.10195 0.51282,0.11097 0.91304,0.47317 0.68722,0.62192 0.72767,1.11089 0.72767,8.7961 0,8.00128 -0.0137,8.14866 -0.81613,8.79871 l -0.81612,0.66112 -0.0969,-9.27186 c -0.0533,-5.09953 -0.0135,-9.35528 0.0885,-9.45724 z m 20.50228,9.15029 c 0,-5.81111 0.13099,-9.23446 0.35043,-9.15874 0.19274,0.0665 1.74338,1.39685 3.44587,2.95634 l 3.09543,2.83544 0,3.32327 0,3.32327 -2.98445,3.00004 c -1.64145,1.65002 -3.19209,3.00003 -3.44587,3.00003 -0.36137,0 -0.46141,-2.01184 -0.46141,-9.27965 z m -11.06304,8.61795 -6.89173,-0.60782 -0.0978,-7.88922 c -0.0538,-4.33907 0.0279,-7.89329 0.18136,-7.89826 0.15351,-0.005 3.95139,-0.31602 8.43972,-0.69121 4.48833,-0.3752 8.28331,-0.60633 8.4333,-0.51364 0.14998,0.0927 0.2727,4.23954 0.2727,9.2152 l 0,9.04665 -1.72294,-0.0269 c -0.94761,-0.0148 -4.82421,-0.30046 -8.61466,-0.63476 z m -123.68841,-0.0721 c -1.19699,-0.18689 -8.33986,-0.34307 -15.87307,-0.34708 -13.15928,-0.007 -13.76046,-0.0373 -15.32075,-0.77068 -1.55252,-0.72977 -3.80891,-2.86353 -3.80891,-3.60191 0,-0.19255 -0.16322,-0.3501 -0.36272,-0.3501 -0.74906,0 -0.31746,1.1374 0.99749,2.6287 1.2939,1.46739 0.91377,1.36499 -0.9421,-0.25379 -3.39436,-2.96075 -3.04586,-9.32688 0.66367,-12.12309 l 1.26311,-0.95213 -1.17243,1.44285 c -1.08004,1.32912 -1.55017,2.74684 -0.90042,2.71521 0.14962,-0.007 0.72573,-0.72957 1.28026,-1.60508 0.67405,-1.06424 1.57571,-1.87135 2.72042,-2.43513 1.69145,-0.83308 1.90114,-0.84554 17.30927,-1.02819 11.26591,-0.13355 15.88061,-0.30982 16.61817,-0.63476 0.5616,-0.24743 1.09208,-0.44988 1.17885,-0.44988 0.0868,0 0.15774,4.18128 0.15774,9.29173 l 0,9.29173 -0.81612,-0.23931 c -0.44887,-0.13162 -1.79548,-0.39222 -2.99246,-0.57909 z m -26.06416,-5.04739 c 2.31359,-0.99115 2.62572,-4.83527 0.52367,-6.44917 -0.31884,-0.24477 -1.68006,-0.44701 -3.05181,-0.4534 -2.26077,-0.0105 -2.56854,0.0807 -3.53654,1.04873 -1.38292,1.38291 -1.4691,3.50211 -0.20233,4.97481 0.74369,0.86459 1.16634,1.0117 3.17382,1.10472 1.27374,0.059 2.66569,-0.0425 3.09319,-0.22569 z m -0.26261,-1.78108 c 0.56882,-1.06286 0.48097,-2.66842 -0.19917,-3.63945 -0.57281,-0.81778 -0.56737,-0.83138 0.17306,-0.43512 1.61705,0.86542 2.00683,3.1565 0.75072,4.41261 -0.88881,0.88882 -1.28284,0.70501 -0.72461,-0.33804 z m -3.59987,0.0415 c -1.2498,-1.58887 -0.45805,-4.08636 1.29542,-4.08636 0.95552,0 1.97111,1.23114 1.97111,2.38949 0,0.93099 -1.30417,2.68863 -1.99497,2.68863 -0.27027,0 -0.84246,-0.4463 -1.27156,-0.99176 z m -1.79744,0.19792 c -1.21291,-1.30191 -0.8401,-3.454 0.74536,-4.30251 0.72396,-0.38745 0.72737,-0.37386 0.13308,0.53314 -0.60176,0.91837 -0.60266,2.54472 -0.004,3.92844 0.37452,0.86313 0.0152,0.79792 -0.87622,-0.15907 z m 61.92704,-23.086632 c -0.11201,-2.8462 -0.058,-3.28374 0.33828,-2.74177 0.36279,0.49616 0.45884,2.908222 0.41644,10.459732 l -0.0551,9.81486 -0.28318,-7.07309 c -0.15571,-3.8902 -0.34313,-8.59708 -0.41644,-10.459732 z m -109.6313,14.849162 -2.16847,-0.99584 2.62187,-1.02866 2.62183,-1.02865 2.62187,1.02865 2.62186,1.02866 -2.16846,0.99584 c -1.19267,0.54772 -2.57653,0.99585 -3.07527,0.99585 -0.49874,0 -1.8826,-0.44813 -3.07523,-0.99585 z m 70.99286,-3.1199 c 0.10505,-0.41023 3.76212,-0.27562 5.27957,0.19433 0.66408,0.20566 -0.0434,0.28163 -2.19643,0.23588 -1.90512,-0.0405 -3.13885,-0.21263 -3.08314,-0.43021 z"
       id="path4214-3"
       inkscape:connector-curvature="0" />
    <text
       xml:space="preserve"
       style="font-style:normal;font-weight:normal;font-size:13.75px;line-height:125%;font-family:sans-serif;letter-spacing:0px;word-spacing:0px;fill:#000000;fill-opacity:1;stroke:none;stroke-width:1px;stroke-linecap:butt;stroke-linejoin:miter;stroke-opacity:1"
       x="487.96097"
       y="99.842178"
       id="text5386-81"
       sodipodi:linespacing="125%"><tspan
         sodipodi:role="line"
         id="tspan5388-4"
         x="487.96097"
         y="99.842178">GND</tspan></text>
    <text
       xml:space="preserve"
       style="font-style:normal;font-weight:normal;font-size:13.75px;line-height:125%;font-family:sans-serif;letter-spacing:0px;word-spacing:0px;fill:#000000;fill-opacity:1;stroke:none;stroke-width:1px;stroke-linecap:butt;stroke-linejoin:miter;stroke-opacity:1"
       x="528.64209"
       y="99.740959"
       id="text5386-4-9"
       sodipodi:linespacing="125%"><tspan
         sodipodi:role="line"
         x="528.64209"
         y="99.740959"
         id="tspan4168-7">R</tspan></text>
    <text
       xml:space="preserve"
       style="font-style:normal;font-weight:normal;font-size:13.75px;line-height:125%;font-family:sans-serif;letter-spacing:0px;word-spacing:0px;fill:#000000;fill-opacity:1;stroke:none;stroke-width:1px;stroke-linecap:butt;stroke-linejoin:miter;stroke-opacity:1"
       x="560.07074"
       y="99.740959"
       id="text5386-8-7"
       sodipodi:linespacing="125%"><tspan
         sodipodi:role="line"
         id="tspan5388-0-1"
         x="560.07074"
         y="99.740959">L</tspan></text>
    <path
       style="fill:none;fill-rule:evenodd;stroke:#000000;stroke-width:1px;stroke-linecap:butt;stroke-linejoin:miter;stroke-opacity:1"
       d="m 149.82439,123.87166 c 0,0 167.14286,188.57143 350,-2.14285"
       id="path4205"
       inkscape:connector-curvature="0" />
    <path
       style="fill:none;fill-rule:evenodd;stroke:#000000;stroke-width:1px;stroke-linecap:butt;stroke-linejoin:miter;stroke-opacity:1"
       d="m 117.68153,123.87166 c 0,0 190.71429,203.57143 416.42857,0.71429"
       id="path4207"
       inkscape:connector-curvature="0" />
    <path
       style="fill:none;fill-rule:evenodd;stroke:#000000;stroke-width:1px;stroke-linecap:butt;stroke-linejoin:miter;stroke-opacity:1"
       d="m 86.967248,121.01452 c 0,0 226.428572,231.42857 477.857142,0.71429"
       id="path4209"
       inkscape:connector-curvature="0" />
  </g>
</svg>
