<?xml version="1.0" encoding="UTF-8" standalone="no"?>
<!-- Created with Inkscape (http://www.inkscape.org/) -->

<svg
   xmlns:dc="http://purl.org/dc/elements/1.1/"
   xmlns:cc="http://creativecommons.org/ns#"
   xmlns:rdf="http://www.w3.org/1999/02/22-rdf-syntax-ns#"
   xmlns:svg="http://www.w3.org/2000/svg"
   xmlns="http://www.w3.org/2000/svg"
   xmlns:sodipodi="http://sodipodi.sourceforge.net/DTD/sodipodi-0.dtd"
   xmlns:inkscape="http://www.inkscape.org/namespaces/inkscape"
   width="35.71769mm"
   height="13.70378mm"
   viewBox="0 0 126.55874 48.556701"
   id="svg2"
   version="1.1"
   inkscape:version="0.91 r13725"
   sodipodi:docname="speaker-f.svg">
  <defs
     id="defs4" />
  <sodipodi:namedview
     id="base"
     pagecolor="#ffffff"
     bordercolor="#666666"
     borderopacity="1.0"
     inkscape:pageopacity="0.0"
     inkscape:pageshadow="2"
     inkscape:zoom="1.4"
     inkscape:cx="224.60421"
     inkscape:cy="12.794711"
     inkscape:document-units="px"
     inkscape:current-layer="layer1"
     showgrid="false"
     inkscape:window-width="1600"
     inkscape:window-height="837"
     inkscape:window-x="1358"
     inkscape:window-y="-8"
     inkscape:window-maximized="1"
     fit-margin-top="0"
     fit-margin-left="0"
     fit-margin-right="0"
     fit-margin-bottom="0" />
  <metadata
     id="metadata7">
    <rdf:RDF>
      <cc:Work
         rdf:about="">
        <dc:format>image/svg+xml</dc:format>
        <dc:type
           rdf:resource="http://purl.org/dc/dcmitype/StillImage" />
        <dc:title></dc:title>
      </cc:Work>
    </rdf:RDF>
  </metadata>
  <g
     inkscape:label="Capa 1"
     inkscape:groupmode="layer"
     id="layer1"
     transform="translate(-39.157894,-153.72797)">
    <path
       style="fill:#000000"
       d="m 104.1077,202.05161 c -0.57475,-0.31108 -0.91526,-0.73762 -1.09354,-1.36982 -0.20324,-0.72066 -0.0506,-1.33122 0.48683,-1.9479 1.06275,-1.21936 3.07108,-0.79632 3.58297,0.75473 l 0.15976,0.48407 13.75923,0 13.75924,0 2.15937,-3.33578 c 1.18766,-1.83468 2.20976,-3.33695 2.27134,-3.33837 0.10779,-0.002 3.32805,6.51521 3.52389,7.13223 0.065,0.20485 0.0387,0.28297 -0.0816,0.24283 -0.0976,-0.0325 -0.90461,-1.57513 -1.79328,-3.42799 -0.88868,-1.85285 -1.64844,-3.36564 -1.68835,-3.36176 -0.0399,0.004 -0.987,1.43702 -2.10463,3.18474 l -2.03205,3.17766 -13.88656,0.008 -13.88655,0.008 -0.16112,0.47172 c -0.4442,1.30057 -1.85292,1.92416 -2.9749,1.3169 z m 2.27891,-0.77215 c 0.32151,-0.35479 0.39916,-0.57918 0.39916,-1.15357 0,-0.6103 -0.0705,-0.78785 -0.48887,-1.23146 -0.44025,-0.46681 -0.56484,-0.51835 -1.25289,-0.51835 -0.68806,0 -0.81265,0.0515 -1.2529,0.51835 -0.41838,0.44361 -0.48887,0.62116 -0.48887,1.23146 0,0.57377 0.0784,0.80085 0.40125,1.16217 0.72799,0.81477 1.9405,0.81088 2.68312,-0.009 z m 51.12322,0.25586 c -0.0385,-0.10105 -0.0532,-7.53179 -0.0326,-16.51275 l 0.0374,-16.32901 1.9232,-0.0405 1.92319,-0.0405 0,-3.26159 0,-3.26159 -27.06309,0 -27.06309,0 -0.28721,0.64929 c -0.73242,1.65575 -3.05068,1.67844 -3.79573,0.0372 -0.34875,-0.76825 -0.34875,-1.04009 0,-1.80834 0.74495,-1.64107 3.06331,-1.61861 3.79556,0.0368 l 0.28705,0.64891 27.24469,0.0367 27.24469,0.0367 0.0389,3.44724 0.0389,3.44723 1.95747,0 1.95747,0 -0.0369,16.51045 -0.0369,16.51045 -4.03149,0.0386 c -3.14697,0.0301 -4.04686,-0.002 -4.10148,-0.14515 z m 7.84268,-16.3676 0,-16.18387 -3.73753,-0.036 -3.73753,-0.036 0,16.25861 0,16.25861 3.73753,-0.0387 3.73753,-0.0387 0,-16.18387 z m -59.43287,-21.70191 c 1.17941,-0.60989 1.10383,-2.69876 -0.11778,-3.25537 -0.70931,-0.32318 -1.3352,-0.19051 -1.93611,0.41039 -1.50551,1.50551 0.16622,3.82114 2.05389,2.84498 z m 42.49339,12.32338 c -0.82497,-1.26819 -1.75992,-2.71344 -2.07765,-3.21169 l -0.57769,-0.9059 -19.26145,-0.001 -19.26145,-0.001 -0.28351,0.64092 c -0.33714,0.76217 -0.81815,1.1119 -1.65974,1.20676 -1.19047,0.13419 -2.13697,-0.58948 -2.36768,-1.81027 -0.12081,-0.63922 0.44086,-1.75811 1.06035,-2.11231 1.07906,-0.61695 2.35066,-0.20301 2.92582,0.95245 l 0.34198,0.68701 19.32541,0.006 19.32542,0.006 1.94624,3.04754 c 1.07043,1.67614 1.98851,3.07366 2.04017,3.10559 0.0517,0.0319 0.96179,-1.34227 2.02251,-3.05376 1.06071,-1.7115 1.9948,-3.11182 2.07575,-3.11182 0.081,0 0.10749,0.10342 0.059,0.22981 -0.10027,0.2613 -3.83161,6.30583 -4.01433,6.50296 -0.0656,0.0707 -0.79417,-0.90902 -1.61914,-2.1772 z m -42.6489,-2.73833 c 0.95491,-0.4938 1.2986,-1.58635 0.80146,-2.54772 -0.59517,-1.15094 -2.45683,-1.13385 -3.05768,0.0281 -0.4845,0.93691 -0.20831,1.89101 0.70939,2.45056 0.55553,0.33873 0.98804,0.35805 1.54683,0.0691 z"
       id="path4171"
       inkscape:connector-curvature="0" />
    <text
       xml:space="preserve"
       style="font-style:normal;font-weight:normal;font-size:40px;line-height:125%;font-family:sans-serif;letter-spacing:0px;word-spacing:0px;fill:#000000;fill-opacity:1;stroke:none;stroke-width:1px;stroke-linecap:butt;stroke-linejoin:miter;stroke-opacity:1"
       x="38.385799"
       y="163.93304"
       id="text4173"
       sodipodi:linespacing="125%"><tspan
         sodipodi:role="line"
         id="tspan4175"
         x="38.385799"
         y="163.93304"
         style="font-size:13.75px">GROUND</tspan></text>
    <text
       xml:space="preserve"
       style="font-style:normal;font-weight:normal;font-size:40px;line-height:125%;font-family:sans-serif;letter-spacing:0px;word-spacing:0px;fill:#000000;fill-opacity:1;stroke:none;stroke-width:1px;stroke-linecap:butt;stroke-linejoin:miter;stroke-opacity:1"
       x="57.257763"
       y="176.81696"
       id="text4173-0"
       sodipodi:linespacing="125%"><tspan
         sodipodi:role="line"
         id="tspan4175-8"
         x="57.257763"
         y="176.81696"
         style="font-size:13.75px">RIGHT</tspan></text>
    <text
       xml:space="preserve"
       style="font-style:normal;font-weight:normal;font-size:40px;line-height:125%;font-family:sans-serif;letter-spacing:0px;word-spacing:0px;fill:#000000;fill-opacity:1;stroke:none;stroke-width:1px;stroke-linecap:butt;stroke-linejoin:miter;stroke-opacity:1"
       x="67.099327"
       y="200.93806"
       id="text4173-8"
       sodipodi:linespacing="125%"><tspan
         sodipodi:role="line"
         id="tspan4175-6"
         x="67.099327"
         y="200.93806"
         style="font-size:13.75px">LEFT</tspan></text>
  </g>
</svg>
